<svg xmlns="http://www.w3.org/2000/svg" viewBox="0 0 780 680" font-family="'Segoe UI', Arial, sans-serif" font-size="11">
  <title>Animal Cell Structure — Detailed</title>
  <defs>
    <!-- Cell cytoplasm gradient -->
    <radialGradient id="cellBg" cx="48%" cy="44%" r="50%">
      <stop offset="0%" stop-color="#fef9ed"/><stop offset="40%" stop-color="#f8efd4"/>
      <stop offset="75%" stop-color="#f0e2b8"/><stop offset="100%" stop-color="#e2cfa0"/>
    </radialGradient>
    <!-- Cell membrane gradient -->
    <linearGradient id="membG" x1="0%" y1="0%" x2="100%" y2="100%">
      <stop offset="0%" stop-color="#d4a830"/><stop offset="50%" stop-color="#b89020"/>
      <stop offset="100%" stop-color="#a07818"/>
    </linearGradient>
    <!-- Nucleus gradients -->
    <radialGradient id="nucG" cx="38%" cy="36%" r="58%">
      <stop offset="0%" stop-color="#c8dff5"/><stop offset="35%" stop-color="#96bfe0"/>
      <stop offset="70%" stop-color="#6a9fc8"/><stop offset="100%" stop-color="#4a80b0"/>
    </radialGradient>
    <radialGradient id="nucInner" cx="40%" cy="35%" r="50%">
      <stop offset="0%" stop-color="rgba(255,255,255,0.15)"/><stop offset="100%" stop-color="rgba(0,0,0,0)"/>
    </radialGradient>
    <radialGradient id="nolG" cx="35%" cy="32%" r="55%">
      <stop offset="0%" stop-color="#7ca8d0"/><stop offset="50%" stop-color="#4878a8"/>
      <stop offset="100%" stop-color="#2a5a88"/>
    </radialGradient>
    <!-- Mitochondria gradient -->
    <radialGradient id="mtG" cx="30%" cy="25%" r="70%">
      <stop offset="0%" stop-color="#f8c8c8"/><stop offset="30%" stop-color="#e89898"/>
      <stop offset="70%" stop-color="#c86868"/><stop offset="100%" stop-color="#a84848"/>
    </radialGradient>
    <radialGradient id="mtG2" cx="30%" cy="25%" r="70%">
      <stop offset="0%" stop-color="#f0b8b8"/><stop offset="100%" stop-color="#b85858"/>
    </radialGradient>
    <!-- Lysosome gradient -->
    <radialGradient id="lyG" cx="35%" cy="30%" r="55%">
      <stop offset="0%" stop-color="#fdd8d8"/><stop offset="40%" stop-color="#f0a0a0"/>
      <stop offset="100%" stop-color="#d06060"/>
    </radialGradient>
    <!-- Vesicle/Golgi gradient -->
    <radialGradient id="vG" cx="35%" cy="30%" r="55%">
      <stop offset="0%" stop-color="#fff8d0"/><stop offset="50%" stop-color="#f0d860"/>
      <stop offset="100%" stop-color="#d0b030"/>
    </radialGradient>
    <linearGradient id="golgiG" x1="0%" y1="0%" x2="0%" y2="100%">
      <stop offset="0%" stop-color="#e8c830"/><stop offset="50%" stop-color="#c8a020"/>
      <stop offset="100%" stop-color="#a88018"/>
    </linearGradient>
    <!-- ER gradients -->
    <linearGradient id="rerG" x1="0%" y1="0%" x2="100%" y2="100%">
      <stop offset="0%" stop-color="#a888d8"/><stop offset="100%" stop-color="#7050b0"/>
    </linearGradient>
    <linearGradient id="serG" x1="0%" y1="0%" x2="100%" y2="100%">
      <stop offset="0%" stop-color="#c8b0e8"/><stop offset="100%" stop-color="#a088c8"/>
    </linearGradient>
    <!-- Centriole gradient -->
    <linearGradient id="centG" x1="0%" y1="0%" x2="0%" y2="100%">
      <stop offset="0%" stop-color="#90d890"/><stop offset="100%" stop-color="#408840"/>
    </linearGradient>
    <!-- Peroxisome -->
    <radialGradient id="pxG" cx="35%" cy="30%" r="55%">
      <stop offset="0%" stop-color="#d8f0d8"/><stop offset="100%" stop-color="#68b068"/>
    </radialGradient>
    <!-- Shadows -->
    <filter id="sh"><feDropShadow dx="2" dy="2" stdDeviation="4" flood-opacity="0.22"/></filter>
    <filter id="shMd"><feDropShadow dx="1.2" dy="1.2" stdDeviation="2.5" flood-opacity="0.18"/></filter>
    <filter id="shSm"><feDropShadow dx="0.8" dy="0.8" stdDeviation="1.5" flood-opacity="0.15"/></filter>
    <filter id="shXs"><feDropShadow dx="0.4" dy="0.4" stdDeviation="0.8" flood-opacity="0.12"/></filter>
    <!-- Inner glow for nucleus -->
    <filter id="innerGlow">
      <feGaussianBlur in="SourceAlpha" stdDeviation="6" result="blur"/>
      <feComposite in="blur" in2="SourceGraphic" operator="arithmetic" k2="1" k3="-0.5"/>
    </filter>
    <!-- Membrane phospholipid pattern -->
    <pattern id="membPat" width="8" height="4" patternUnits="userSpaceOnUse">
      <circle cx="2" cy="2" r="1.2" fill="#c8a020" opacity="0.3"/>
      <circle cx="6" cy="2" r="1.2" fill="#c8a020" opacity="0.3"/>
      <line x1="2" y1="3.2" x2="2" y2="4" stroke="#b89020" stroke-width="0.5" opacity="0.2"/>
      <line x1="6" y1="3.2" x2="6" y2="4" stroke="#b89020" stroke-width="0.5" opacity="0.2"/>
    </pattern>
    <!-- Cytoplasm texture pattern -->
    <pattern id="cytoTex" width="20" height="20" patternUnits="userSpaceOnUse">
      <circle cx="5" cy="5" r="0.6" fill="#c8b080" opacity="0.08"/>
      <circle cx="15" cy="12" r="0.5" fill="#c8b080" opacity="0.06"/>
      <circle cx="8" cy="17" r="0.4" fill="#c8b080" opacity="0.07"/>
      <circle cx="18" cy="3" r="0.5" fill="#c8b080" opacity="0.05"/>
    </pattern>
    <!-- Chromatin texture -->
    <pattern id="chromPat" width="12" height="12" patternUnits="userSpaceOnUse">
      <path d="M2 4 Q5 2 8 5 Q10 8 7 10" fill="none" stroke="#1a4060" stroke-width="0.8" opacity="0.12"/>
    </pattern>
  </defs>

  <!-- Title -->
  <text x="390" y="28" text-anchor="middle" font-size="20" fill="#2c3e50" font-weight="bold" letter-spacing="0.6">Animal Cell Structure</text>
  <line x1="195" y1="36" x2="585" y2="36" stroke="#d0d0d0" stroke-width="1"/>
  <text x="390" y="50" text-anchor="middle" font-size="10" fill="#888" font-style="italic">Eukaryotic cell — schematic cross-section</text>

  <!-- ===== CELL MEMBRANE (double layer with texture) ===== -->
  <g filter="url(#sh)">
    <!-- Outer membrane -->
    <ellipse cx="380" cy="340" rx="330" ry="268" fill="url(#cellBg)" stroke="url(#membG)" stroke-width="5.5"/>
    <!-- Phospholipid bilayer hint (inner line) -->
    <ellipse cx="380" cy="340" rx="325" ry="263" fill="none" stroke="#c8a030" stroke-width="1.8" stroke-dasharray="2,2" opacity="0.4"/>
    <!-- Membrane protein bumps -->
    <g fill="#b08818" opacity="0.35">
      <ellipse cx="95" cy="250" rx="8" ry="12" transform="rotate(-15 95 250)"/>
      <ellipse cx="680" cy="300" rx="7" ry="11" transform="rotate(20 680 300)"/>
      <ellipse cx="200" cy="560" rx="9" ry="12" transform="rotate(40 200 560)"/>
      <ellipse cx="560" cy="555" rx="8" ry="11" transform="rotate(-30 560 555)"/>
      <ellipse cx="140" cy="160" rx="7" ry="10" transform="rotate(-50 140 160)"/>
      <ellipse cx="620" cy="170" rx="7" ry="10" transform="rotate(50 620 170)"/>
    </g>
  </g>
  <!-- Cytoplasm texture overlay -->
  <ellipse cx="380" cy="340" rx="320" ry="258" fill="url(#cytoTex)" opacity="0.5"/>

  <!-- ===== ROUGH ENDOPLASMIC RETICULUM ===== -->
  <g filter="url(#shMd)">
    <!-- RER cisternae (parallel folded membranes) -->
    <path d="M108 225 Q88 258 110 290 Q130 322 108 352 Q88 382 108 412 Q128 440 110 460" fill="none" stroke="url(#rerG)" stroke-width="5.5" stroke-linecap="round"/>
    <path d="M130 222 Q110 258 132 290 Q152 322 132 352 Q112 382 132 412 Q152 440 134 458" fill="none" stroke="url(#rerG)" stroke-width="5.5" stroke-linecap="round"/>
    <path d="M154 228 Q134 260 154 290 Q170 318 152 342 Q134 366 152 390 Q168 410 154 428" fill="none" stroke="url(#rerG)" stroke-width="4.5" stroke-linecap="round" opacity="0.8"/>
    <!-- Lumen (lighter interior between cisternae) -->
    <path d="M119 226 Q99 258 119 290 Q139 322 119 352 Q99 382 119 412 Q139 440 121 456" fill="none" stroke="#c8b0e0" stroke-width="2" opacity="0.4"/>
    <path d="M141 224 Q121 258 141 290 Q161 322 141 352 Q121 382 141 412 Q161 440 143 456" fill="none" stroke="#c8b0e0" stroke-width="2" opacity="0.4"/>
    <!-- Ribosomes on RER (small spheres with 3D effect) -->
    <g>
      <g fill="#6040a0">
        <circle cx="104" cy="235" r="4.2"/><circle cx="104" cy="258" r="4.2"/><circle cx="104" cy="282" r="4"/>
        <circle cx="104" cy="305" r="4.2"/><circle cx="104" cy="328" r="4"/><circle cx="104" cy="350" r="4.2"/>
        <circle cx="104" cy="372" r="4"/><circle cx="104" cy="395" r="4.2"/><circle cx="104" cy="418" r="4"/>
        <circle cx="104" cy="442" r="4"/>
        <circle cx="128" cy="230" r="4"/><circle cx="128" cy="255" r="4.2"/><circle cx="128" cy="278" r="4"/>
        <circle cx="128" cy="302" r="4.2"/><circle cx="128" cy="325" r="4"/><circle cx="128" cy="348" r="4.2"/>
        <circle cx="128" cy="372" r="4"/><circle cx="128" cy="395" r="4.2"/><circle cx="128" cy="418" r="4"/>
        <circle cx="128" cy="440" r="3.8"/>
        <circle cx="152" cy="238" r="3.5"/><circle cx="152" cy="262" r="3.5"/><circle cx="152" cy="288" r="3.5"/>
        <circle cx="152" cy="312" r="3.5"/><circle cx="152" cy="338" r="3.5"/><circle cx="152" cy="362" r="3.5"/>
        <circle cx="152" cy="386" r="3.5"/><circle cx="152" cy="408" r="3.5"/>
      </g>
      <!-- Ribosome highlights -->
      <g fill="#fff" opacity="0.25">
        <circle cx="102" cy="233" r="1.5"/><circle cx="102" cy="256" r="1.5"/>
        <circle cx="126" cy="228" r="1.5"/><circle cx="126" cy="253" r="1.5"/>
        <circle cx="150" cy="236" r="1.2"/><circle cx="150" cy="260" r="1.2"/>
      </g>
    </g>
  </g>

  <!-- ===== SMOOTH ER ===== -->
  <g filter="url(#shMd)">
    <path d="M508 410 Q488 435 508 462 Q528 488 508 508 Q492 525 504 540" fill="none" stroke="url(#serG)" stroke-width="5" stroke-linecap="round"/>
    <path d="M530 408 Q510 435 530 460 Q548 482 530 502 Q516 518 524 532" fill="none" stroke="url(#serG)" stroke-width="5" stroke-linecap="round"/>
    <path d="M552 415 Q535 438 548 458 Q558 474 546 490" fill="none" stroke="url(#serG)" stroke-width="4" stroke-linecap="round" opacity="0.75"/>
    <!-- Lighter lumen -->
    <path d="M518 412 Q498 438 518 462 Q536 485 518 505" fill="none" stroke="#d8c0f0" stroke-width="1.5" opacity="0.35"/>
  </g>

  <!-- ===== NUCLEUS (detailed with envelope, pores, chromatin) ===== -->
  <g filter="url(#sh)">
    <!-- Nuclear envelope (double membrane) -->
    <ellipse cx="378" cy="310" rx="120" ry="100" fill="url(#nucG)" stroke="#2a5888" stroke-width="4"/>
    <!-- Inner membrane -->
    <ellipse cx="378" cy="310" rx="115" ry="95" fill="none" stroke="#3a6898" stroke-width="1.5" opacity="0.5"/>
    <!-- Highlight reflection -->
    <ellipse cx="340" cy="270" rx="60" ry="35" fill="url(#nucInner)" opacity="0.6"/>

    <!-- Nuclear pores (detailed - donut shapes) -->
    <g>
      <g fill="#fff" stroke="#2a5888" stroke-width="1.5">
        <circle cx="268" cy="280" r="5"/><circle cx="268" cy="280" r="2" fill="#2a5888"/>
        <circle cx="264" cy="318" r="5"/><circle cx="264" cy="318" r="2" fill="#2a5888"/>
        <circle cx="270" cy="358" r="5"/><circle cx="270" cy="358" r="2" fill="#2a5888"/>
        <circle cx="488" cy="272" r="5"/><circle cx="488" cy="272" r="2" fill="#2a5888"/>
        <circle cx="492" cy="312" r="5"/><circle cx="492" cy="312" r="2" fill="#2a5888"/>
        <circle cx="486" cy="350" r="5"/><circle cx="486" cy="350" r="2" fill="#2a5888"/>
        <circle cx="318" cy="216" r="5"/><circle cx="318" cy="216" r="2" fill="#2a5888"/>
        <circle cx="378" cy="211" r="5"/><circle cx="378" cy="211" r="2" fill="#2a5888"/>
        <circle cx="438" cy="216" r="5"/><circle cx="438" cy="216" r="2" fill="#2a5888"/>
        <circle cx="318" cy="402" r="5"/><circle cx="318" cy="402" r="2" fill="#2a5888"/>
        <circle cx="378" cy="408" r="5"/><circle cx="378" cy="408" r="2" fill="#2a5888"/>
        <circle cx="438" cy="402" r="5"/><circle cx="438" cy="402" r="2" fill="#2a5888"/>
      </g>
    </g>

    <!-- Chromatin fibers (detailed, wavy fibers) -->
    <g stroke="#1a3d5c" fill="none" opacity="0.5" stroke-linecap="round">
      <path d="M305 268 Q318 255 312 278 Q306 300 322 310 Q338 302 330 280 Q322 262 340 258 Q355 256 350 275" stroke-width="3"/>
      <path d="M395 325 Q412 312 408 342 Q404 365 420 370 Q432 358 425 335 Q418 315 435 318" stroke-width="2.8"/>
      <path d="M325 350 Q338 338 348 358 Q356 372 348 362" stroke-width="2.5"/>
      <path d="M405 255 Q420 245 416 272 Q412 295 428 290" stroke-width="2.8"/>
      <path d="M358 340 Q370 330 375 350 Q378 360 368 355" stroke-width="2.2"/>
    </g>

    <!-- Nucleolus (detailed with granular texture) -->
    <g filter="url(#shSm)">
      <ellipse cx="392" cy="295" rx="34" ry="30" fill="url(#nolG)" stroke="#1e4870" stroke-width="2.5"/>
      <!-- Granular texture inside nucleolus -->
      <g fill="#1e4870" opacity="0.2">
        <circle cx="380" cy="285" r="2.5"/><circle cx="395" cy="280" r="3"/><circle cx="405" cy="290" r="2"/>
        <circle cx="385" cy="300" r="2.5"/><circle cx="398" cy="305" r="2"/><circle cx="375" cy="295" r="1.8"/>
        <circle cx="408" cy="300" r="2.2"/><circle cx="390" cy="310" r="1.8"/>
      </g>
      <!-- Highlight -->
      <ellipse cx="385" cy="287" rx="12" ry="8" fill="rgba(255,255,255,0.15)"/>
      <text x="392" y="293" text-anchor="middle" font-size="11" fill="#dce8f4" font-weight="bold">Nucleolus</text>
      <text x="392" y="306" text-anchor="middle" font-size="8" fill="#b0c8e0">(rRNA synthesis)</text>
    </g>
  </g>

  <!-- ===== GOLGI APPARATUS (stacked cisternae with budding vesicles) ===== -->
  <g filter="url(#shMd)" transform="translate(538,195)">
    <!-- Cisternae with gradient fills showing 3D curvature -->
    <g stroke="#a88010" stroke-linecap="round">
      <path d="M-5 0 Q50 12 105 0" fill="none" stroke-width="6" opacity="0.55"/>
      <path d="M-8 22 Q50 36 108 22" fill="none" stroke-width="7" opacity="0.7"/>
      <path d="M-10 46 Q50 62 110 46" fill="url(#golgiG)" stroke-width="8"/>
      <path d="M-8 72 Q50 88 108 72" fill="none" stroke-width="7" opacity="0.7"/>
      <path d="M-5 96 Q50 108 105 96" fill="none" stroke-width="6" opacity="0.55"/>
    </g>
    <!-- Lumen highlights -->
    <g stroke="#f0d860" stroke-width="1.5" opacity="0.3" stroke-linecap="round">
      <path d="M8 4 Q50 14 98 4" fill="none"/>
      <path d="M5 26 Q50 38 100 26" fill="none"/>
      <path d="M3 50 Q50 64 102 50" fill="none"/>
    </g>
    <!-- Vesicles budding off trans face -->
    <circle cx="118" cy="18" r="9" fill="url(#vG)" stroke="#b89020" stroke-width="2" filter="url(#shXs)"/>
    <circle cx="126" cy="48" r="7.5" fill="url(#vG)" stroke="#b89020" stroke-width="1.8" filter="url(#shXs)"/>
    <circle cx="122" cy="78" r="10" fill="url(#vG)" stroke="#b89020" stroke-width="2" filter="url(#shXs)"/>
    <circle cx="116" cy="102" r="7" fill="url(#vG)" stroke="#b89020" stroke-width="1.6" filter="url(#shXs)"/>
    <!-- Cis/trans labels -->
    <text x="-22" y="6" font-size="9" fill="#8a6800" font-weight="bold" font-style="italic">cis</text>
    <text x="-28" y="16" font-size="7" fill="#aaa">(receiving)</text>
    <text x="-24" y="102" font-size="9" fill="#8a6800" font-weight="bold" font-style="italic">trans</text>
    <text x="-30" y="112" font-size="7" fill="#aaa">(shipping)</text>
  </g>

  <!-- ===== MITOCHONDRIA (detailed with cristae and matrix) ===== -->
  <!-- Large mitochondrion -->
  <g filter="url(#shMd)" transform="translate(238,468) rotate(-15)">
    <!-- Outer membrane -->
    <ellipse cx="0" cy="0" rx="65" ry="28" fill="url(#mtG)" stroke="#903030" stroke-width="3"/>
    <!-- Inner membrane (slightly smaller) -->
    <ellipse cx="0" cy="0" rx="60" ry="24" fill="none" stroke="#a04040" stroke-width="1.2" opacity="0.5"/>
    <!-- Cristae (detailed folded inner membrane) -->
    <g fill="none" stroke="#a04040" stroke-width="2.2" opacity="0.6" stroke-linecap="round">
      <path d="M-48 -12 Q-38 -25 -32 -8 Q-26 8 -38 14 Q-46 8 -44 -4"/>
      <path d="M-20 -14 Q-10 -28 -4 -8 Q2 10 -10 14 Q-18 8 -16 -4"/>
      <path d="M10 -12 Q20 -25 26 -8 Q30 8 20 12 Q12 6 14 -4"/>
      <path d="M34 -10 Q42 -20 48 -5 Q52 6 44 10 Q38 5 40 -2"/>
    </g>
    <!-- Matrix dots -->
    <g fill="#a04040" opacity="0.15">
      <circle cx="-40" cy="2" r="2.5"/><circle cx="-12" cy="-2" r="2.5"/>
      <circle cx="15" cy="2" r="2.5"/><circle cx="40" cy="0" r="2"/>
    </g>
    <!-- Highlight -->
    <ellipse cx="-15" cy="-12" rx="25" ry="8" fill="rgba(255,255,255,0.12)"/>
  </g>
  <!-- Smaller mitochondrion -->
  <g filter="url(#shSm)" transform="translate(548,498) rotate(25)">
    <ellipse cx="0" cy="0" rx="48" ry="22" fill="url(#mtG2)" stroke="#903030" stroke-width="2.5"/>
    <ellipse cx="0" cy="0" rx="44" ry="18" fill="none" stroke="#a04040" stroke-width="0.8" opacity="0.4"/>
    <g fill="none" stroke="#a04040" stroke-width="1.8" opacity="0.55" stroke-linecap="round">
      <path d="M-32 -8 Q-24 -18 -20 -5 Q-16 6 -24 8"/>
      <path d="M-4 -10 Q4 -20 10 -5 Q14 6 6 8"/>
      <path d="M20 -7 Q26 -14 30 -3 Q32 4 26 6"/>
    </g>
    <ellipse cx="-10" cy="-8" rx="18" ry="6" fill="rgba(255,255,255,0.1)"/>
  </g>
  <!-- Third tiny mitochondrion -->
  <g filter="url(#shXs)" transform="translate(168,500) rotate(-35)">
    <ellipse cx="0" cy="0" rx="32" ry="14" fill="url(#mtG2)" stroke="#903030" stroke-width="2"/>
    <path d="M-18 -5 Q-12 -12 -8 -2 Q-4 5 -12 6" fill="none" stroke="#a04040" stroke-width="1.5" opacity="0.5"/>
    <path d="M6 -5 Q12 -10 14 -2 Q16 4 10 5" fill="none" stroke="#a04040" stroke-width="1.5" opacity="0.5"/>
  </g>

  <!-- ===== LYSOSOMES (with enzyme granules) ===== -->
  <g filter="url(#shSm)">
    <circle cx="458" cy="455" r="26" fill="url(#lyG)" stroke="#b83030" stroke-width="2.5"/>
    <!-- Enzyme granules inside -->
    <g fill="#b83030" opacity="0.35">
      <circle cx="448" cy="442" r="3.5"/><circle cx="462" cy="438" r="4"/><circle cx="454" cy="460" r="3"/>
      <circle cx="468" cy="455" r="3.5"/><circle cx="448" cy="452" r="2.5"/><circle cx="465" cy="468" r="2.8"/>
      <circle cx="440" cy="462" r="2.5"/>
    </g>
    <!-- Highlight -->
    <circle cx="452" cy="445" r="8" fill="rgba(255,255,255,0.15)"/>
  </g>
  <!-- Smaller lysosome -->
  <g filter="url(#shXs)">
    <circle cx="498" cy="428" r="17" fill="url(#lyG)" stroke="#b83030" stroke-width="2"/>
    <g fill="#b83030" opacity="0.3"><circle cx="494" cy="422" r="2.5"/><circle cx="502" cy="420" r="2.8"/><circle cx="498" cy="434" r="2.2"/></g>
    <circle cx="494" cy="424" r="5" fill="rgba(255,255,255,0.12)"/>
  </g>

  <!-- ===== CENTRIOLES (perpendicular pair with aster) ===== -->
  <g filter="url(#shSm)" transform="translate(455,148)">
    <!-- Aster microtubules radiating -->
    <g stroke="#70b070" stroke-width="0.6" opacity="0.35">
      <line x1="0" y1="0" x2="-30" y2="-25"/><line x1="0" y1="0" x2="-25" y2="-30"/>
      <line x1="0" y1="0" x2="-35" y2="-10"/><line x1="0" y1="0" x2="-35" y2="10"/>
      <line x1="0" y1="0" x2="-25" y2="30"/><line x1="0" y1="0" x2="25" y2="-30"/>
      <line x1="0" y1="0" x2="30" y2="-25"/><line x1="0" y1="0" x2="35" y2="-10"/>
      <line x1="0" y1="0" x2="35" y2="10"/><line x1="0" y1="0" x2="25" y2="30"/>
      <line x1="0" y1="0" x2="-10" y2="-35"/><line x1="0" y1="0" x2="10" y2="-35"/>
    </g>
    <!-- Vertical centriole -->
    <rect x="-8" y="-22" width="16" height="44" rx="4" fill="url(#centG)" stroke="#2a6a2a" stroke-width="2"/>
    <!-- Triplet microtubule lines -->
    <g stroke="#2a6a2a" stroke-width="1.2" opacity="0.4">
      <line x1="-4" y1="-16" x2="4" y2="-16"/><line x1="-4" y1="-8" x2="4" y2="-8"/>
      <line x1="-4" y1="0" x2="4" y2="0"/><line x1="-4" y1="8" x2="4" y2="8"/>
      <line x1="-4" y1="16" x2="4" y2="16"/>
    </g>
    <!-- Horizontal centriole -->
    <rect x="4" y="-6" width="36" height="14" rx="4" fill="url(#centG)" stroke="#2a6a2a" stroke-width="1.8" transform="rotate(90 22 1)"/>
  </g>

  <!-- ===== FREE RIBOSOMES (clustered polyribosomes) ===== -->
  <g opacity="0.8">
    <!-- Cluster 1 -->
    <g fill="#7050b8" filter="url(#shXs)">
      <circle cx="298" cy="488" r="4.5"/><circle cx="312" cy="480" r="5"/><circle cx="286" cy="478" r="4.5"/>
      <circle cx="304" cy="500" r="4"/><circle cx="318" cy="492" r="4.5"/><circle cx="290" cy="502" r="4"/>
      <circle cx="326" cy="484" r="4"/><circle cx="278" cy="490" r="4.5"/>
    </g>
    <!-- Cluster 2 -->
    <g fill="#7050b8" filter="url(#shXs)">
      <circle cx="365" cy="520" r="4.5"/><circle cx="378" cy="514" r="4.5"/><circle cx="390" cy="520" r="4.5"/>
      <circle cx="372" cy="528" r="4"/><circle cx="384" cy="528" r="4"/>
    </g>
    <!-- Highlights -->
    <g fill="#fff" opacity="0.2">
      <circle cx="296" cy="486" r="1.5"/><circle cx="310" cy="478" r="1.5"/>
      <circle cx="363" cy="518" r="1.5"/><circle cx="376" cy="512" r="1.5"/>
    </g>
  </g>

  <!-- ===== PEROXISOME ===== -->
  <g filter="url(#shSm)">
    <circle cx="600" cy="378" r="20" fill="url(#pxG)" stroke="#358035" stroke-width="2.2"/>
    <!-- Crystalline core -->
    <polygon points="595,370 605,370 608,378 605,386 595,386 592,378" fill="#358035" opacity="0.2" stroke="#358035" stroke-width="0.8" opacity="0.15"/>
    <circle cx="596" cy="374" r="5" fill="rgba(255,255,255,0.15)"/>
  </g>

  <!-- ===== SECRETORY VESICLES ===== -->
  <circle cx="614" cy="298" r="13" fill="url(#vG)" stroke="#b89020" stroke-width="2" filter="url(#shSm)"/>
  <circle cx="628" cy="326" r="9" fill="url(#vG)" stroke="#b89020" stroke-width="1.5" filter="url(#shXs)"/>

  <!-- ============ LABELS WITH LEADER LINES ============ -->
  <g font-size="12.5" fill="#2c3e50">
    <!-- Cell Membrane -->
    <line x1="670" y1="340" x2="728" y2="340" stroke="#8a6d00" stroke-width="1.5"/>
    <circle cx="670" cy="340" r="3" fill="#8a6d00"/>
    <text x="700" y="328" font-weight="bold" fill="#8a6d00" font-size="13">Cell Membrane</text>
    <text x="700" y="344" font-size="9" fill="#888">(phospholipid bilayer)</text>
    <text x="700" y="356" font-size="8.5" fill="#aaa">selective permeability</text>

    <!-- Nucleus -->
    <line x1="378" y1="215" x2="378" y2="180" stroke="#2a5888" stroke-width="1.5"/>
    <circle cx="378" cy="215" r="3" fill="#2a5888"/>
    <text x="378" y="175" text-anchor="middle" font-weight="bold" fill="#2a5888" font-size="15">Nucleus</text>
    <text x="378" y="160" text-anchor="middle" font-size="9.5" fill="#888">DNA storage • gene expression control</text>

    <!-- Rough ER -->
    <line x1="80" y1="340" x2="35" y2="340" stroke="#6040a0" stroke-width="1.5"/>
    <circle cx="80" cy="340" r="3" fill="#6040a0"/>
    <text x="5" y="328" font-weight="bold" fill="#6040a0" font-size="13">Rough ER</text>
    <text x="5" y="343" font-size="9" fill="#888">Protein synthesis &amp;</text>
    <text x="5" y="355" font-size="9" fill="#888">folding (studded with</text>
    <text x="5" y="367" font-size="9" fill="#888">ribosomes)</text>

    <!-- Smooth ER -->
    <line x1="565" y1="465" x2="605" y2="465" stroke="#8a6dc4" stroke-width="1.3"/>
    <circle cx="565" cy="465" r="2.5" fill="#8a6dc4"/>
    <text x="610" y="458" font-weight="bold" fill="#8a6dc4" font-size="12">Smooth ER</text>
    <text x="610" y="472" font-size="9" fill="#888">Lipid synthesis,</text>
    <text x="610" y="484" font-size="9" fill="#888">detoxification, Ca²⁺ storage</text>

    <!-- Golgi -->
    <line x1="668" y1="252" x2="720" y2="252" stroke="#8a6d00" stroke-width="1.3"/>
    <circle cx="668" cy="252" r="2.5" fill="#8a6d00"/>
    <text x="690" y="242" font-weight="bold" fill="#8a6d00" font-size="13">Golgi Apparatus</text>
    <text x="690" y="257" font-size="9" fill="#888">Modifies, sorts &amp; packages</text>
    <text x="690" y="269" font-size="9" fill="#888">proteins into vesicles</text>

    <!-- Mitochondria -->
    <line x1="210" y1="495" x2="120" y2="540" stroke="#903030" stroke-width="1.3"/>
    <circle cx="210" cy="495" r="2.5" fill="#903030"/>
    <text x="5" y="535" font-weight="bold" fill="#903030" font-size="13">Mitochondrion</text>
    <text x="5" y="549" font-size="9.5" fill="#888">"Powerhouse" — ATP via</text>
    <text x="5" y="561" font-size="9.5" fill="#888">oxidative phosphorylation</text>
    <text x="5" y="575" font-size="8.5" fill="#903030" font-style="italic">Has own circular DNA (maternal)</text>

    <!-- Lysosomes -->
    <text x="465" y="495" text-anchor="middle" font-weight="bold" fill="#b83030" font-size="12.5">Lysosomes</text>
    <text x="465" y="509" text-anchor="middle" font-size="9" fill="#888">Hydrolytic enzymes (pH ~5)</text>
    <text x="465" y="521" text-anchor="middle" font-size="9" fill="#888">Intracellular digestion</text>

    <!-- Centrioles -->
    <line x1="455" y1="118" x2="455" y2="98" stroke="#2a6a2a" stroke-width="1.3"/>
    <circle cx="455" cy="118" r="2.5" fill="#2a6a2a"/>
    <text x="455" y="92" text-anchor="middle" font-weight="bold" fill="#2a6a2a">Centrioles</text>
    <text x="455" y="78" text-anchor="middle" font-size="9" fill="#888">Spindle formation (cell division)</text>
    <text x="455" y="66" text-anchor="middle" font-size="8.5" fill="#aaa">with aster microtubules</text>

    <!-- Ribosomes -->
    <text x="305" y="542" text-anchor="middle" font-weight="bold" fill="#6040a0" font-size="12">Free Ribosomes</text>
    <text x="305" y="556" text-anchor="middle" font-size="9" fill="#888">Cytoplasmic protein synthesis</text>
    <text x="305" y="568" text-anchor="middle" font-size="8.5" fill="#aaa">(polyribosomes = clusters)</text>

    <!-- Chromatin -->
    <text x="335" y="370" font-size="10" fill="#1a3d5c" font-style="italic">Chromatin fibers</text>

    <!-- Nuclear pores -->
    <line x1="268" y1="284" x2="240" y2="270" stroke="#2a5888" stroke-width="1"/>
    <text x="178" y="268" font-size="9.5" fill="#2a5888">Nuclear pores</text>
    <text x="178" y="280" font-size="8" fill="#aaa">(transport in/out)</text>

    <!-- Peroxisome -->
    <line x1="600" y1="360" x2="600" y2="342" stroke="#358035" stroke-width="1"/>
    <text x="600" y="336" text-anchor="middle" font-weight="bold" fill="#358035" font-size="11">Peroxisome</text>
    <text x="600" y="324" text-anchor="middle" font-size="8.5" fill="#888">H₂O₂ breakdown</text>

    <!-- Secretory vesicle -->
    <text x="646" y="290" font-size="9.5" fill="#8a6d00" font-style="italic">Secretory</text>
    <text x="646" y="302" font-size="9.5" fill="#8a6d00" font-style="italic">vesicles</text>

    <!-- Cytoplasm -->
    <text x="380" y="600" text-anchor="middle" font-size="13" fill="#8a7a5a" font-style="italic">Cytoplasm (cytosol + organelles)</text>
  </g>

  <!-- ===== NUCLEAR ENVELOPE LABEL ===== -->
  <text x="480" y="400" font-size="9" fill="#2a5888" font-style="italic">Nuclear envelope</text>
  <text x="480" y="412" font-size="8" fill="#aaa">(double membrane)</text>

  <!-- ===== KEY FACTS BOX ===== -->
  <g filter="url(#shSm)">
    <rect x="25" y="618" width="730" height="55" rx="8" fill="#f8f9fa" stroke="#dee2e6" stroke-width="1.5"/>
    <text x="390" y="636" text-anchor="middle" font-size="11.5" fill="#495057">
      <tspan font-weight="bold" fill="#c83838">⚠ Exam Tip:</tspan> Animal cells lack cell wall, chloroplasts &amp; large central vacuole (plant features). Centrioles are animal-cell specific.
    </text>
    <text x="390" y="654" text-anchor="middle" font-size="10" fill="#868e96">
      Mitochondria &amp; chloroplasts have own DNA → endosymbiotic theory | Lysosomes: pH ~5 (acidic) | Golgi: cis (receiving) → trans (shipping)
    </text>
    <text x="390" y="668" text-anchor="middle" font-size="9.5" fill="#aaa">
      Rough ER → Golgi → vesicles → membrane (secretory pathway) | Free ribosomes make cytoplasmic proteins
    </text>
  </g>
</svg>