<svg xmlns="http://www.w3.org/2000/svg" viewBox="0 0 750 580" font-family="'Segoe UI', Arial, sans-serif">
  <title>DNA Replication Fork — Molecular Biology Textbook Illustration</title>
  <defs>
    <!-- Background gradient -->
    <linearGradient id="bgGrad" x1="0%" y1="0%" x2="0%" y2="100%">
      <stop offset="0%" stop-color="#0a0e1a"/>
      <stop offset="50%" stop-color="#0f1628"/>
      <stop offset="100%" stop-color="#080c16"/>
    </linearGradient>

    <!-- Parental strand 1 - deep sapphire backbone -->
    <linearGradient id="strand1" x1="0%" y1="0%" x2="0%" y2="100%">
      <stop offset="0%" stop-color="#1a3a7a"/>
      <stop offset="30%" stop-color="#2856a8"/>
      <stop offset="50%" stop-color="#4080d0"/>
      <stop offset="70%" stop-color="#2856a8"/>
      <stop offset="100%" stop-color="#1a3a7a"/>
    </linearGradient>

    <!-- Parental strand 2 - rich burgundy backbone -->
    <linearGradient id="strand2" x1="0%" y1="0%" x2="0%" y2="100%">
      <stop offset="0%" stop-color="#6a1020"/>
      <stop offset="30%" stop-color="#9a2040"/>
      <stop offset="50%" stop-color="#c03050"/>
      <stop offset="70%" stop-color="#9a2040"/>
      <stop offset="100%" stop-color="#6a1020"/>
    </linearGradient>

    <!-- Leading strand - emerald -->
    <linearGradient id="leadingStrand" x1="0%" y1="0%" x2="0%" y2="100%">
      <stop offset="0%" stop-color="#0a5a30"/>
      <stop offset="30%" stop-color="#1a8a50"/>
      <stop offset="50%" stop-color="#30b070"/>
      <stop offset="70%" stop-color="#1a8a50"/>
      <stop offset="100%" stop-color="#0a5a30"/>
    </linearGradient>

    <!-- Lagging strand - warm amber -->
    <linearGradient id="laggingStrand" x1="0%" y1="0%" x2="0%" y2="100%">
      <stop offset="0%" stop-color="#7a5000"/>
      <stop offset="30%" stop-color="#b07800"/>
      <stop offset="50%" stop-color="#e0a020"/>
      <stop offset="70%" stop-color="#b07800"/>
      <stop offset="100%" stop-color="#7a5000"/>
    </linearGradient>

    <!-- Helicase enzyme 3D gradient -->
    <radialGradient id="helicaseGrad" cx="40%" cy="35%" r="60%">
      <stop offset="0%" stop-color="#ff9060"/>
      <stop offset="40%" stop-color="#e05020"/>
      <stop offset="70%" stop-color="#b03010"/>
      <stop offset="100%" stop-color="#701808"/>
    </radialGradient>

    <!-- Helicase inner hole -->
    <radialGradient id="helicaseHole" cx="50%" cy="50%" r="50%">
      <stop offset="0%" stop-color="#200a04"/>
      <stop offset="80%" stop-color="#401008"/>
      <stop offset="100%" stop-color="#802010"/>
    </radialGradient>

    <!-- DNA Pol III gradient -->
    <radialGradient id="pol3Grad" cx="35%" cy="30%" r="65%">
      <stop offset="0%" stop-color="#70d0ff"/>
      <stop offset="35%" stop-color="#3090d0"/>
      <stop offset="70%" stop-color="#1860a0"/>
      <stop offset="100%" stop-color="#0a3060"/>
    </radialGradient>

    <!-- Primase gradient -->
    <radialGradient id="primaseGrad" cx="35%" cy="30%" r="65%">
      <stop offset="0%" stop-color="#d090ff"/>
      <stop offset="40%" stop-color="#9040d0"/>
      <stop offset="70%" stop-color="#6020a0"/>
      <stop offset="100%" stop-color="#300860"/>
    </radialGradient>

    <!-- Topoisomerase gradient -->
    <radialGradient id="topoGrad" cx="35%" cy="30%" r="65%">
      <stop offset="0%" stop-color="#90ff90"/>
      <stop offset="35%" stop-color="#40c040"/>
      <stop offset="70%" stop-color="#208020"/>
      <stop offset="100%" stop-color="#084008"/>
    </radialGradient>

    <!-- Sliding clamp (PCNA) gradient -->
    <radialGradient id="pcnaGrad" cx="40%" cy="35%" r="60%">
      <stop offset="0%" stop-color="#ffe070"/>
      <stop offset="40%" stop-color="#d0a020"/>
      <stop offset="70%" stop-color="#a07010"/>
      <stop offset="100%" stop-color="#604008"/>
    </radialGradient>

    <!-- SSB protein gradient -->
    <radialGradient id="ssbGrad" cx="40%" cy="35%" r="60%">
      <stop offset="0%" stop-color="#80ffff"/>
      <stop offset="50%" stop-color="#30b0b0"/>
      <stop offset="100%" stop-color="#106060"/>
    </radialGradient>

    <!-- Ligase gradient -->
    <radialGradient id="ligaseGrad" cx="35%" cy="30%" r="65%">
      <stop offset="0%" stop-color="#ffb0d0"/>
      <stop offset="40%" stop-color="#e06090"/>
      <stop offset="70%" stop-color="#b03060"/>
      <stop offset="100%" stop-color="#601030"/>
    </radialGradient>

    <!-- DNA Pol I gradient -->
    <radialGradient id="pol1Grad" cx="35%" cy="30%" r="65%">
      <stop offset="0%" stop-color="#b0e0ff"/>
      <stop offset="40%" stop-color="#6090c0"/>
      <stop offset="70%" stop-color="#305080"/>
      <stop offset="100%" stop-color="#102840"/>
    </radialGradient>

    <!-- Base pair colors -->
    <linearGradient id="adenineGrad" x1="0%" y1="0%" x2="100%" y2="100%">
      <stop offset="0%" stop-color="#ff6060"/>
      <stop offset="100%" stop-color="#cc3030"/>
    </linearGradient>
    <linearGradient id="thymineGrad" x1="0%" y1="0%" x2="100%" y2="100%">
      <stop offset="0%" stop-color="#60a0ff"/>
      <stop offset="100%" stop-color="#3070cc"/>
    </linearGradient>
    <linearGradient id="guanineGrad" x1="0%" y1="0%" x2="100%" y2="100%">
      <stop offset="0%" stop-color="#60dd60"/>
      <stop offset="100%" stop-color="#30aa30"/>
    </linearGradient>
    <linearGradient id="cytosineGrad" x1="0%" y1="0%" x2="100%" y2="100%">
      <stop offset="0%" stop-color="#ffcc40"/>
      <stop offset="100%" stop-color="#cc9920"/>
    </linearGradient>

    <!-- Glow filters -->
    <filter id="enzymeGlow" x="-30%" y="-30%" width="160%" height="160%">
      <feGaussianBlur stdDeviation="3" result="blur"/>
      <feComposite in="SourceGraphic" in2="blur" operator="over"/>
    </filter>
    <filter id="activeGlow" x="-50%" y="-50%" width="200%" height="200%">
      <feGaussianBlur stdDeviation="5" result="blur"/>
      <feMerge>
        <feMergeNode in="blur"/>
        <feMergeNode in="SourceGraphic"/>
      </feMerge>
    </filter>
    <filter id="softGlow" x="-20%" y="-20%" width="140%" height="140%">
      <feGaussianBlur stdDeviation="2" result="blur"/>
      <feMerge>
        <feMergeNode in="blur"/>
        <feMergeNode in="SourceGraphic"/>
      </feMerge>
    </filter>
    <filter id="shadow" x="-10%" y="-10%" width="130%" height="130%">
      <feDropShadow dx="1" dy="1" stdDeviation="2" flood-color="#000" flood-opacity="0.5"/>
    </filter>

    <!-- RNA primer pattern -->
    <pattern id="rnaPattern" width="4" height="4" patternUnits="userSpaceOnUse">
      <rect width="4" height="4" fill="#d050d0"/>
      <line x1="0" y1="0" x2="4" y2="4" stroke="#ff80ff" stroke-width="0.8"/>
      <line x1="4" y1="0" x2="0" y2="4" stroke="#ff80ff" stroke-width="0.8"/>
    </pattern>

    <!-- Table header gradient -->
    <linearGradient id="tableHeader" x1="0%" y1="0%" x2="0%" y2="100%">
      <stop offset="0%" stop-color="#2a4a7a"/>
      <stop offset="100%" stop-color="#1a2a4a"/>
    </linearGradient>
    <linearGradient id="tableRow1" x1="0%" y1="0%" x2="0%" y2="100%">
      <stop offset="0%" stop-color="#141e30"/>
      <stop offset="100%" stop-color="#101828"/>
    </linearGradient>
    <linearGradient id="tableRow2" x1="0%" y1="0%" x2="0%" y2="100%">
      <stop offset="0%" stop-color="#1a2438"/>
      <stop offset="100%" stop-color="#141e30"/>
    </linearGradient>
  </defs>

  <!-- Background -->
  <rect width="750" height="580" fill="url(#bgGrad)"/>
  <!-- Subtle grid pattern for textbook look -->
  <g opacity="0.03">
    <line x1="0" y1="0" x2="750" y2="0" stroke="#fff" stroke-width="0.5"/>
    <line x1="0" y1="50" x2="750" y2="50" stroke="#fff" stroke-width="0.5"/>
    <line x1="0" y1="100" x2="750" y2="100" stroke="#fff" stroke-width="0.5"/>
    <line x1="0" y1="150" x2="750" y2="150" stroke="#fff" stroke-width="0.5"/>
    <line x1="0" y1="200" x2="750" y2="200" stroke="#fff" stroke-width="0.5"/>
    <line x1="0" y1="250" x2="750" y2="250" stroke="#fff" stroke-width="0.5"/>
    <line x1="0" y1="300" x2="750" y2="300" stroke="#fff" stroke-width="0.5"/>
    <line x1="0" y1="350" x2="750" y2="350" stroke="#fff" stroke-width="0.5"/>
    <line x1="0" y1="400" x2="750" y2="400" stroke="#fff" stroke-width="0.5"/>
  </g>

  <!-- ============ TITLE ============ -->
  <text x="375" y="28" text-anchor="middle" fill="#d0e0ff" font-size="16" font-weight="bold" letter-spacing="2">DNA REPLICATION FORK</text>
  <line x1="180" y1="34" x2="570" y2="34" stroke="#3060a0" stroke-width="0.5" opacity="0.6"/>
  <text x="375" y="46" text-anchor="middle" fill="#8090b0" font-size="9" letter-spacing="1">MOLECULAR MECHANISM OF SEMICONSERVATIVE REPLICATION</text>

  <!-- ============ PARENTAL DOUBLE HELIX (upstream of fork) ============ -->
  <!-- This draws a realistic double helix with crossing strands and base pairs -->
  <g id="parentalHelix">
    <!-- Helix backbone - strand crossings create 3D effect -->
    <!-- Back strand segments (drawn first, appear behind) -->

    <!-- Helix turn 1: x=30-90 -->
    <!-- Back portion of blue strand -->
    <path d="M 30,140 C 40,130 55,125 65,130" stroke="url(#strand1)" stroke-width="6" fill="none" opacity="0.5" stroke-linecap="round"/>
    <!-- Back portion of burgundy strand -->
    <path d="M 30,170 C 40,180 55,185 65,180" stroke="url(#strand2)" stroke-width="6" fill="none" opacity="0.5" stroke-linecap="round"/>

    <!-- Base pairs for turn 1 -->
    <g opacity="0.9">
      <line x1="38" y1="145" x2="38" y2="165" stroke="#ff6060" stroke-width="2.5"/>
      <line x1="38" y1="155" x2="38" y2="165" stroke="#60a0ff" stroke-width="2.5"/>
      <text x="34" y="153" fill="#ff9090" font-size="6" font-weight="bold">A</text>
      <text x="34" y="168" fill="#90c0ff" font-size="6" font-weight="bold">T</text>
    </g>
    <g opacity="0.9">
      <line x1="52" y1="143" x2="52" y2="168" stroke="#60dd60" stroke-width="2.5"/>
      <line x1="52" y1="155" x2="52" y2="168" stroke="#ffcc40" stroke-width="2.5"/>
      <text x="48" y="150" fill="#90ff90" font-size="6" font-weight="bold">G</text>
      <text x="48" y="170" fill="#ffe070" font-size="6" font-weight="bold">C</text>
    </g>

    <!-- Front strand segments (drawn on top) -->
    <path d="M 30,170 C 40,160 55,155 65,160" stroke="url(#strand1)" stroke-width="7" fill="none" stroke-linecap="round"/>
    <path d="M 30,140 C 40,150 55,155 65,150" stroke="url(#strand2)" stroke-width="7" fill="none" stroke-linecap="round"/>

    <!-- Helix turn 2: x=65-125 -->
    <path d="M 65,160 C 75,165 90,170 100,165" stroke="url(#strand1)" stroke-width="6" fill="none" opacity="0.5" stroke-linecap="round"/>
    <path d="M 65,150 C 75,145 90,140 100,145" stroke="url(#strand2)" stroke-width="6" fill="none" opacity="0.5" stroke-linecap="round"/>

    <g opacity="0.9">
      <line x1="75" y1="148" x2="75" y2="163" stroke="#ffcc40" stroke-width="2.5"/>
      <line x1="75" y1="148" x2="75" y2="155" stroke="#60dd60" stroke-width="2.5"/>
      <text x="71" y="150" fill="#ffe070" font-size="6" font-weight="bold">C</text>
      <text x="71" y="166" fill="#90ff90" font-size="6" font-weight="bold">G</text>
    </g>
    <g opacity="0.9">
      <line x1="90" y1="145" x2="90" y2="167" stroke="#60a0ff" stroke-width="2.5"/>
      <line x1="90" y1="155" x2="90" y2="167" stroke="#ff6060" stroke-width="2.5"/>
      <text x="86" y="149" fill="#90c0ff" font-size="6" font-weight="bold">T</text>
      <text x="86" y="170" fill="#ff9090" font-size="6" font-weight="bold">A</text>
    </g>

    <path d="M 65,150 C 75,155 90,160 100,155" stroke="url(#strand1)" stroke-width="7" fill="none" stroke-linecap="round"/>
    <path d="M 65,160 C 75,155 90,150 100,155" stroke="url(#strand2)" stroke-width="7" fill="none" stroke-linecap="round"/>

    <!-- Helix turn 3: x=100-160 -->
    <path d="M 100,155 C 110,150 125,145 135,150" stroke="url(#strand1)" stroke-width="6" fill="none" opacity="0.5" stroke-linecap="round"/>
    <path d="M 100,155 C 110,160 125,165 135,160" stroke="url(#strand2)" stroke-width="6" fill="none" opacity="0.5" stroke-linecap="round"/>

    <g opacity="0.9">
      <line x1="112" y1="149" x2="112" y2="162" stroke="#ff6060" stroke-width="2.5"/>
      <line x1="112" y1="155" x2="112" y2="162" stroke="#60a0ff" stroke-width="2.5"/>
      <text x="108" y="152" fill="#ff9090" font-size="6" font-weight="bold">A</text>
      <text x="108" y="165" fill="#90c0ff" font-size="6" font-weight="bold">T</text>
    </g>
    <g opacity="0.9">
      <line x1="127" y1="147" x2="127" y2="164" stroke="#60dd60" stroke-width="2.5"/>
      <line x1="127" y1="155" x2="127" y2="164" stroke="#ffcc40" stroke-width="2.5"/>
      <text x="123" y="150" fill="#90ff90" font-size="6" font-weight="bold">G</text>
      <text x="123" y="167" fill="#ffe070" font-size="6" font-weight="bold">C</text>
    </g>

    <path d="M 100,155 C 110,160 125,165 135,160" stroke="url(#strand1)" stroke-width="7" fill="none" stroke-linecap="round"/>
    <path d="M 100,155 C 110,150 125,145 135,150" stroke="url(#strand2)" stroke-width="7" fill="none" stroke-linecap="round"/>

    <!-- Helix turn 4: x=135-195 -->
    <path d="M 135,160 C 145,165 160,170 170,165" stroke="url(#strand1)" stroke-width="6" fill="none" opacity="0.5" stroke-linecap="round"/>
    <path d="M 135,150 C 145,145 160,140 170,145" stroke="url(#strand2)" stroke-width="6" fill="none" opacity="0.5" stroke-linecap="round"/>

    <g opacity="0.9">
      <line x1="148" y1="148" x2="148" y2="168" stroke="#ffcc40" stroke-width="2.5"/>
      <line x1="148" y1="148" x2="148" y2="158" stroke="#60dd60" stroke-width="2.5"/>
      <text x="144" y="150" fill="#ffe070" font-size="6" font-weight="bold">C</text>
      <text x="144" y="170" fill="#90ff90" font-size="6" font-weight="bold">G</text>
    </g>
    <g opacity="0.9">
      <line x1="162" y1="145" x2="162" y2="168" stroke="#60a0ff" stroke-width="2.5"/>
      <line x1="162" y1="156" x2="162" y2="168" stroke="#ff6060" stroke-width="2.5"/>
      <text x="158" y="149" fill="#90c0ff" font-size="6" font-weight="bold">T</text>
      <text x="158" y="170" fill="#ff9090" font-size="6" font-weight="bold">A</text>
    </g>

    <path d="M 135,150 C 145,155 160,160 170,155" stroke="url(#strand1)" stroke-width="7" fill="none" stroke-linecap="round"/>
    <path d="M 135,160 C 145,155 160,150 170,155" stroke="url(#strand2)" stroke-width="7" fill="none" stroke-linecap="round"/>

    <!-- 3' and 5' labels on parental strands -->
    <text x="18" y="138" fill="#4080d0" font-size="8" font-weight="bold">3'</text>
    <text x="18" y="178" fill="#c03050" font-size="8" font-weight="bold">5'</text>
  </g>

  <!-- ============ TOPOISOMERASE (ahead of fork, on helix) ============ -->
  <g id="topoisomerase" filter="url(#activeGlow)">
    <!-- Supercoiled DNA indication ahead -->
    <path d="M 60,128 Q 55,120 60,112 Q 65,104 60,96" stroke="#4080d0" stroke-width="2" fill="none" opacity="0.4"/>
    <path d="M 66,128 Q 71,120 66,112 Q 61,104 66,96" stroke="#c03050" stroke-width="2" fill="none" opacity="0.4"/>

    <!-- Topoisomerase body - wrapping around supercoiled region -->
    <ellipse cx="63" cy="112" rx="18" ry="14" fill="url(#topoGrad)" stroke="#40a040" stroke-width="1"/>
    <!-- Inner detail - clamp opening -->
    <path d="M 52,108 Q 63,102 74,108" stroke="#80ff80" stroke-width="0.8" fill="none" opacity="0.5"/>
    <path d="M 52,116 Q 63,122 74,116" stroke="#80ff80" stroke-width="0.8" fill="none" opacity="0.5"/>
    <!-- Nick indication -->
    <line x1="60" y1="105" x2="66" y2="105" stroke="#ffff60" stroke-width="1.5" opacity="0.7"/>

    <!-- Glow at active site -->
    <circle cx="63" cy="105" r="4" fill="#80ff40" opacity="0.15"/>

    <text x="63" y="95" text-anchor="middle" fill="#80ff80" font-size="7.5" font-weight="bold" filter="url(#shadow)">Topoisomerase</text>
  </g>

  <!-- ============ REPLICATION FORK OPENING ============ -->
  <g id="forkOpening">
    <!-- Upper template strand (blue) curving upward from fork point -->
    <path d="M 170,155 C 190,150 210,130 230,110 C 250,90 280,75 320,70 L 520,70"
          stroke="url(#strand1)" stroke-width="7" fill="none" stroke-linecap="round"/>
    <!-- Shading line for 3D backbone effect -->
    <path d="M 170,155 C 190,150 210,130 230,110 C 250,90 280,75 320,70 L 520,70"
          stroke="#1a3060" stroke-width="2" fill="none" opacity="0.4" stroke-linecap="round"/>

    <!-- Lower template strand (burgundy) curving downward -->
    <path d="M 170,155 C 190,160 210,185 230,210 C 250,235 280,260 320,275 L 520,275"
          stroke="url(#strand2)" stroke-width="7" fill="none" stroke-linecap="round"/>
    <path d="M 170,155 C 190,160 210,185 230,210 C 250,235 280,260 320,275 L 520,275"
          stroke="#400810" stroke-width="2" fill="none" opacity="0.4" stroke-linecap="round"/>

    <!-- Fork point highlight -->
    <circle cx="185" cy="155" r="8" fill="#fff" opacity="0.04"/>
  </g>

  <!-- ============ SSB PROTEINS on single strands ============ -->
  <g id="ssbProteins">
    <!-- SSB on upper template strand -->
    <circle cx="240" cy="100" r="5" fill="url(#ssbGrad)" opacity="0.8"/>
    <circle cx="255" cy="90" r="5" fill="url(#ssbGrad)" opacity="0.8"/>
    <circle cx="270" cy="82" r="5" fill="url(#ssbGrad)" opacity="0.8"/>
    <circle cx="285" cy="77" r="5" fill="url(#ssbGrad)" opacity="0.8"/>
    <!-- SSB on lower template strand -->
    <circle cx="240" cy="220" r="5" fill="url(#ssbGrad)" opacity="0.8"/>
    <circle cx="255" cy="235" r="5" fill="url(#ssbGrad)" opacity="0.8"/>
    <circle cx="270" cy="248" r="5" fill="url(#ssbGrad)" opacity="0.8"/>
    <circle cx="285" cy="258" r="5" fill="url(#ssbGrad)" opacity="0.8"/>

    <text x="262" cy="92" y="67" text-anchor="middle" fill="#80e0e0" font-size="7" font-weight="bold" filter="url(#shadow)">SSB Proteins</text>
  </g>

  <!-- ============ HELICASE (ring/donut at fork) ============ -->
  <g id="helicase" filter="url(#activeGlow)" transform="translate(195,155)">
    <!-- Outer ring -->
    <ellipse cx="0" cy="0" rx="22" ry="16" fill="url(#helicaseGrad)" stroke="#ff6030" stroke-width="1"/>
    <!-- Inner hole (DNA threads through) -->
    <ellipse cx="0" cy="0" rx="10" ry="7" fill="url(#helicaseHole)"/>
    <!-- 3D ring detail - highlight bands -->
    <ellipse cx="0" cy="-3" rx="20" ry="12" fill="none" stroke="#ffa060" stroke-width="0.6" opacity="0.4"/>
    <ellipse cx="0" cy="3" rx="20" ry="12" fill="none" stroke="#802010" stroke-width="0.6" opacity="0.5"/>
    <!-- Protein subunit divisions -->
    <line x1="-18" y1="-8" x2="-8" y2="-5" stroke="#ffc090" stroke-width="0.4" opacity="0.5"/>
    <line x1="18" y1="-8" x2="8" y2="-5" stroke="#ffc090" stroke-width="0.4" opacity="0.5"/>
    <line x1="-18" y1="8" x2="-8" y2="5" stroke="#802010" stroke-width="0.4" opacity="0.5"/>
    <line x1="18" y1="8" x2="8" y2="5" stroke="#802010" stroke-width="0.4" opacity="0.5"/>
    <line x1="0" y1="-16" x2="0" y2="-7" stroke="#ffc090" stroke-width="0.4" opacity="0.5"/>
    <line x1="0" y1="16" x2="0" y2="7" stroke="#802010" stroke-width="0.4" opacity="0.5"/>
    <!-- Active site glow -->
    <circle cx="0" cy="0" r="6" fill="#ff8040" opacity="0.1"/>

    <text x="0" y="-22" text-anchor="middle" fill="#ff9060" font-size="8" font-weight="bold" filter="url(#shadow)">Helicase</text>
  </g>

  <!-- ============ LEADING STRAND (continuous synthesis) ============ -->
  <g id="leadingStrandSynthesis">
    <!-- Leading strand - continuous emerald strand along upper template -->
    <path d="M 520,80 L 340,80 C 320,82 310,85 305,90"
          stroke="url(#leadingStrand)" stroke-width="6" fill="none" stroke-linecap="round"/>
    <path d="M 520,80 L 340,80 C 320,82 310,85 305,90"
          stroke="#0a3a18" stroke-width="1.5" fill="none" opacity="0.4" stroke-linecap="round"/>

    <!-- Base pairs on leading strand region -->
    <g opacity="0.7">
      <line x1="340" y1="72" x2="340" y2="78" stroke="#ff6060" stroke-width="1.8"/>
      <line x1="340" y1="80" x2="340" y2="86" stroke="#60dd60" stroke-width="1.8"/>
      <text x="337" y="74" fill="#ff9090" font-size="5">A</text>
      <text x="337" y="88" fill="#90ff90" font-size="5">T</text>

      <line x1="360" y1="72" x2="360" y2="78" stroke="#60dd60" stroke-width="1.8"/>
      <line x1="360" y1="80" x2="360" y2="86" stroke="#ffcc40" stroke-width="1.8"/>
      <text x="357" y="74" fill="#90ff90" font-size="5">G</text>
      <text x="357" y="88" fill="#ffe070" font-size="5">C</text>

      <line x1="380" y1="72" x2="380" y2="78" stroke="#ffcc40" stroke-width="1.8"/>
      <line x1="380" y1="80" x2="380" y2="86" stroke="#60dd60" stroke-width="1.8"/>
      <text x="377" y="74" fill="#ffe070" font-size="5">C</text>
      <text x="377" y="88" fill="#90ff90" font-size="5">G</text>

      <line x1="400" y1="72" x2="400" y2="78" stroke="#60a0ff" stroke-width="1.8"/>
      <line x1="400" y1="80" x2="400" y2="86" stroke="#ff6060" stroke-width="1.8"/>
      <text x="397" y="74" fill="#90c0ff" font-size="5">T</text>
      <text x="397" y="88" fill="#ff9090" font-size="5">A</text>

      <line x1="420" y1="72" x2="420" y2="78" stroke="#ff6060" stroke-width="1.8"/>
      <line x1="420" y1="80" x2="420" y2="86" stroke="#60a0ff" stroke-width="1.8"/>
      <text x="417" y="74" fill="#ff9090" font-size="5">A</text>
      <text x="417" y="88" fill="#90c0ff" font-size="5">T</text>

      <line x1="440" y1="72" x2="440" y2="78" stroke="#60dd60" stroke-width="1.8"/>
      <line x1="440" y1="80" x2="440" y2="86" stroke="#ffcc40" stroke-width="1.8"/>
      <text x="437" y="74" fill="#90ff90" font-size="5">G</text>
      <text x="437" y="88" fill="#ffe070" font-size="5">C</text>

      <line x1="460" y1="72" x2="460" y2="78" stroke="#ffcc40" stroke-width="1.8"/>
      <line x1="460" y1="80" x2="460" y2="86" stroke="#60dd60" stroke-width="1.8"/>
      <text x="457" y="74" fill="#ffe070" font-size="5">C</text>
      <text x="457" y="88" fill="#90ff90" font-size="5">G</text>

      <line x1="480" y1="72" x2="480" y2="78" stroke="#60a0ff" stroke-width="1.8"/>
      <line x1="480" y1="80" x2="480" y2="86" stroke="#ff6060" stroke-width="1.8"/>
      <text x="477" y="74" fill="#90c0ff" font-size="5">T</text>
      <text x="477" y="88" fill="#ff9090" font-size="5">A</text>

      <line x1="500" y1="72" x2="500" y2="78" stroke="#ff6060" stroke-width="1.8"/>
      <line x1="500" y1="80" x2="500" y2="86" stroke="#60a0ff" stroke-width="1.8"/>
      <text x="497" y="74" fill="#ff9090" font-size="5">A</text>
      <text x="497" y="88" fill="#90c0ff" font-size="5">T</text>
    </g>

    <!-- Direction labels -->
    <text x="530" y="68" fill="#4080d0" font-size="7.5" font-weight="bold">3'</text>
    <text x="530" y="84" fill="#30b070" font-size="7.5" font-weight="bold">5'</text>

    <!-- Direction arrow -->
    <path d="M 330,92 L 300,95" stroke="#30b070" stroke-width="1.5" fill="none" marker-end="url(#arrowGreen)"/>
    <text x="370" y="100" text-anchor="middle" fill="#30b070" font-size="7.5" font-weight="bold" filter="url(#shadow)">Leading Strand (continuous)</text>

    <!-- Arrow markers -->
    <defs>
      <marker id="arrowGreen" markerWidth="6" markerHeight="4" refX="5" refY="2" orient="auto">
        <polygon points="0,0 6,2 0,4" fill="#30b070"/>
      </marker>
    </defs>
  </g>

  <!-- ============ SLIDING CLAMP (PCNA) on Leading Strand ============ -->
  <g id="pcnaLeading" filter="url(#enzymeGlow)" transform="translate(315,85)">
    <!-- PCNA donut shape -->
    <ellipse cx="0" cy="0" rx="12" ry="9" fill="url(#pcnaGrad)" stroke="#c09020" stroke-width="0.8"/>
    <ellipse cx="0" cy="0" rx="5" ry="4" fill="#201008"/>
    <!-- Subunit lines -->
    <line x1="-10" y1="-5" x2="-4" y2="-3" stroke="#ffe090" stroke-width="0.4" opacity="0.5"/>
    <line x1="10" y1="-5" x2="4" y2="-3" stroke="#ffe090" stroke-width="0.4" opacity="0.5"/>
    <line x1="0" y1="-9" x2="0" y2="-4" stroke="#ffe090" stroke-width="0.4" opacity="0.5"/>

    <text x="0" y="-13" text-anchor="middle" fill="#e0b040" font-size="6.5" font-weight="bold">PCNA</text>
  </g>

  <!-- ============ DNA POL III on Leading Strand ============ -->
  <g id="pol3Leading" filter="url(#activeGlow)" transform="translate(310,85)">
    <!-- Hand/clamp shape for Pol III -->
    <path d="M -20,8 C -25,2 -25,-8 -18,-14 C -12,-18 -4,-18 2,-14 L 8,-8 C 12,-4 12,4 8,10 C 4,14 -4,16 -10,14 Z"
          fill="url(#pol3Grad)" stroke="#2070b0" stroke-width="1"/>
    <!-- Finger domain -->
    <path d="M -18,-14 C -14,-20 -6,-22 0,-18" stroke="#90d0ff" stroke-width="0.8" fill="none" opacity="0.5"/>
    <!-- Palm domain -->
    <ellipse cx="-8" cy="0" rx="8" ry="6" fill="#2080c0" opacity="0.3"/>
    <!-- Active site indication -->
    <circle cx="-4" cy="-2" r="3" fill="#60c0ff" opacity="0.2"/>

    <text x="-8" y="24" text-anchor="middle" fill="#70c0ff" font-size="7.5" font-weight="bold" filter="url(#shadow)">DNA Pol III</text>
  </g>

  <!-- ============ LAGGING STRAND (Okazaki fragments) ============ -->
  <g id="laggingStrandSynthesis">

    <!-- === OKAZAKI FRAGMENT 3 (closest to fork, newest) === -->
    <!-- RNA Primer 3 - hatched pattern -->
    <rect x="308" y="268" width="18" height="7" rx="2" fill="url(#rnaPattern)" stroke="#d050d0" stroke-width="0.8"/>
    <text x="317" y="264" text-anchor="middle" fill="#e080e0" font-size="5.5" font-style="italic">RNA</text>

    <!-- Okazaki fragment 3 - amber -->
    <path d="M 326,271 L 365,271" stroke="url(#laggingStrand)" stroke-width="5" fill="none" stroke-linecap="round"/>

    <!-- Gap between fragments -->
    <line x1="367" y1="271" x2="373" y2="271" stroke="none"/>

    <!-- === OKAZAKI FRAGMENT 2 (middle) === -->
    <!-- RNA Primer 2 -->
    <rect x="373" y="268" width="18" height="7" rx="2" fill="url(#rnaPattern)" stroke="#d050d0" stroke-width="0.8"/>
    <text x="382" y="264" text-anchor="middle" fill="#e080e0" font-size="5.5" font-style="italic">RNA</text>

    <!-- Okazaki fragment 2 -->
    <path d="M 391,271 L 438,271" stroke="url(#laggingStrand)" stroke-width="5" fill="none" stroke-linecap="round"/>

    <!-- Gap -->
    <line x1="440" y1="271" x2="446" y2="271" stroke="none"/>

    <!-- === OKAZAKI FRAGMENT 1 (oldest, most processed) === -->
    <!-- This one has primer being replaced by DNA Pol I -->
    <rect x="446" y="268" width="18" height="7" rx="2" fill="url(#rnaPattern)" stroke="#d050d0" stroke-width="0.8" opacity="0.5"/>
    <!-- DNA replacing primer -->
    <rect x="446" y="268" width="10" height="7" rx="2" fill="url(#laggingStrand)" opacity="0.7"/>

    <!-- Okazaki fragment 1 -->
    <path d="M 464,271 L 520,271" stroke="url(#laggingStrand)" stroke-width="5" fill="none" stroke-linecap="round"/>

    <!-- Base pairs on lagging strand fragments -->
    <g opacity="0.7">
      <line x1="340" y1="276" x2="340" y2="282" stroke="#ff6060" stroke-width="1.8"/>
      <text x="337" y="286" fill="#ff9090" font-size="5">A</text>

      <line x1="355" y1="276" x2="355" y2="282" stroke="#60dd60" stroke-width="1.8"/>
      <text x="352" y="286" fill="#90ff90" font-size="5">G</text>

      <line x1="400" y1="276" x2="400" y2="282" stroke="#ffcc40" stroke-width="1.8"/>
      <text x="397" y="286" fill="#ffe070" font-size="5">C</text>

      <line x1="420" y1="276" x2="420" y2="282" stroke="#60a0ff" stroke-width="1.8"/>
      <text x="417" y="286" fill="#90c0ff" font-size="5">T</text>

      <line x1="475" y1="276" x2="475" y2="282" stroke="#ff6060" stroke-width="1.8"/>
      <text x="472" y="286" fill="#ff9090" font-size="5">A</text>

      <line x1="495" y1="276" x2="495" y2="282" stroke="#60dd60" stroke-width="1.8"/>
      <text x="492" y="286" fill="#90ff90" font-size="5">G</text>

      <line x1="510" y1="276" x2="510" y2="282" stroke="#ffcc40" stroke-width="1.8"/>
      <text x="507" y="286" fill="#ffe070" font-size="5">C</text>
    </g>

    <!-- Strand direction labels -->
    <text x="530" y="270" fill="#c03050" font-size="7.5" font-weight="bold">5'</text>
    <text x="530" y="284" fill="#e0a020" font-size="7.5" font-weight="bold">3'</text>

    <!-- Direction arrows showing discontinuous synthesis -->
    <path d="M 360,258 L 330,258" stroke="#e0a020" stroke-width="1" fill="none" marker-end="url(#arrowAmber)"/>
    <path d="M 430,258 L 400,258" stroke="#e0a020" stroke-width="1" fill="none" marker-end="url(#arrowAmber)"/>
    <path d="M 505,258 L 475,258" stroke="#e0a020" stroke-width="1" fill="none" marker-end="url(#arrowAmber)"/>

    <text x="410" y="300" text-anchor="middle" fill="#e0a020" font-size="7.5" font-weight="bold" filter="url(#shadow)">Lagging Strand (Okazaki Fragments)</text>

    <defs>
      <marker id="arrowAmber" markerWidth="6" markerHeight="4" refX="5" refY="2" orient="auto">
        <polygon points="0,0 6,2 0,4" fill="#e0a020"/>
      </marker>
    </defs>
  </g>

  <!-- ============ PRIMASE on Lagging Strand ============ -->
  <g id="primase" filter="url(#activeGlow)" transform="translate(305,268)">
    <!-- Primase body - distinctive wedge shape -->
    <path d="M -12,-10 L 8,-14 L 14,-4 L 10,6 L -6,10 L -14,2 Z"
          fill="url(#primaseGrad)" stroke="#8040c0" stroke-width="0.8"/>
    <!-- Active channel -->
    <ellipse cx="0" cy="-2" rx="5" ry="3" fill="#b060e0" opacity="0.3"/>
    <!-- Glow -->
    <circle cx="2" cy="-2" r="4" fill="#d080ff" opacity="0.12"/>

    <text x="0" y="-18" text-anchor="middle" fill="#c080ff" font-size="7.5" font-weight="bold" filter="url(#shadow)">Primase</text>
  </g>

  <!-- ============ DNA POL III on Lagging Strand ============ -->
  <g id="pol3Lagging" filter="url(#activeGlow)" transform="translate(350,268)">
    <path d="M -14,10 C -18,4 -18,-6 -12,-12 C -6,-16 2,-16 8,-12 L 14,-6 C 18,-2 18,6 14,12 C 10,16 2,18 -4,16 Z"
          fill="url(#pol3Grad)" stroke="#2070b0" stroke-width="1"/>
    <ellipse cx="0" cy="2" rx="8" ry="6" fill="#2080c0" opacity="0.3"/>
    <circle cx="2" cy="0" r="3" fill="#60c0ff" opacity="0.2"/>

    <text x="0" y="26" text-anchor="middle" fill="#70c0ff" font-size="7.5" font-weight="bold" filter="url(#shadow)">DNA Pol III</text>
  </g>

  <!-- ============ SLIDING CLAMP (PCNA) on Lagging Strand ============ -->
  <g id="pcnaLagging" filter="url(#enzymeGlow)" transform="translate(370,271)">
    <ellipse cx="0" cy="0" rx="10" ry="7" fill="url(#pcnaGrad)" stroke="#c09020" stroke-width="0.8"/>
    <ellipse cx="0" cy="0" rx="4" ry="3" fill="#201008"/>
    <text x="0" y="-10" text-anchor="middle" fill="#e0b040" font-size="6" font-weight="bold">PCNA</text>
  </g>

  <!-- ============ DNA POLYMERASE I (replacing primers) ============ -->
  <g id="pol1" filter="url(#enzymeGlow)" transform="translate(450,268)">
    <path d="M -10,-8 C -14,-4 -14,4 -10,8 L 2,12 C 6,12 10,8 10,4 L 10,-4 C 10,-8 6,-12 2,-12 Z"
          fill="url(#pol1Grad)" stroke="#4070a0" stroke-width="0.8"/>
    <circle cx="0" cy="0" r="3" fill="#80c0ff" opacity="0.2"/>

    <text x="0" y="-14" text-anchor="middle" fill="#90c0e0" font-size="7.5" font-weight="bold" filter="url(#shadow)">DNA Pol I</text>
    <text x="0" y="-6" text-anchor="middle" fill="#90c0e0" font-size="5" opacity="0.7">(primer removal)</text>
  </g>

  <!-- ============ LIGASE (sealing nicks) ============ -->
  <g id="ligase" filter="url(#enzymeGlow)" transform="translate(463,271)">
    <!-- Small ring shape sealing gap -->
    <ellipse cx="0" cy="0" rx="8" ry="6" fill="url(#ligaseGrad)" stroke="#c04070" stroke-width="0.8"/>
    <ellipse cx="0" cy="0" rx="3" ry="2" fill="#300818"/>
    <!-- Seal spark -->
    <circle cx="0" cy="0" r="3" fill="#ff80b0" opacity="0.15"/>

    <text x="0" y="14" text-anchor="middle" fill="#ff80b0" font-size="7" font-weight="bold" filter="url(#shadow)">Ligase</text>
  </g>

  <!-- ============ MOVEMENT ARROW for overall fork progression ============ -->
  <g id="forkDirection">
    <defs>
      <marker id="arrowWhite" markerWidth="8" markerHeight="6" refX="7" refY="3" orient="auto">
        <polygon points="0,0 8,3 0,6" fill="#c0d0e0"/>
      </marker>
    </defs>
    <line x1="185" y1="130" x2="170" y2="130" stroke="#c0d0e0" stroke-width="1.5" marker-end="url(#arrowWhite)"/>
    <text x="178" y="125" text-anchor="middle" fill="#8090b0" font-size="6.5">Fork movement</text>
  </g>

  <!-- ============ SEMICONSERVATIVE NOTE ============ -->
  <g id="semiconNote" transform="translate(600,155)">
    <rect x="-70" y="-20" width="140" height="40" rx="4" fill="#141e30" stroke="#3060a0" stroke-width="0.8" opacity="0.9"/>
    <text x="0" y="-5" text-anchor="middle" fill="#a0c0e0" font-size="7" font-weight="bold">Semiconservative</text>
    <text x="0" y="7" text-anchor="middle" fill="#8098b8" font-size="6.5">Each daughter helix retains</text>
    <text x="0" y="16" text-anchor="middle" fill="#8098b8" font-size="6.5">one parental strand</text>
  </g>

  <!-- ============ COLOR LEGEND for base pairs ============ -->
  <g id="baseLegend" transform="translate(620,50)">
    <rect x="-50" y="-12" width="100" height="55" rx="3" fill="#0e1420" stroke="#2a3a5a" stroke-width="0.6"/>
    <text x="0" y="0" text-anchor="middle" fill="#8898b0" font-size="6.5" font-weight="bold">Base Pairs</text>
    <rect x="-40" y="5" width="8" height="6" rx="1" fill="url(#adenineGrad)"/><text x="-28" y="11" fill="#ff9090" font-size="6">A - Adenine</text>
    <rect x="-40" y="14" width="8" height="6" rx="1" fill="url(#thymineGrad)"/><text x="-28" y="20" fill="#90c0ff" font-size="6">T - Thymine</text>
    <rect x="-40" y="23" width="8" height="6" rx="1" fill="url(#guanineGrad)"/><text x="-28" y="29" fill="#90ff90" font-size="6">G - Guanine</text>
    <rect x="-40" y="32" width="8" height="6" rx="1" fill="url(#cytosineGrad)"/><text x="-28" y="38" fill="#ffe070" font-size="6">C - Cytosine</text>
  </g>

  <!-- ============ STRAND LEGEND ============ -->
  <g id="strandLegend" transform="translate(620,120)">
    <rect x="-50" y="-8" width="100" height="40" rx="3" fill="#0e1420" stroke="#2a3a5a" stroke-width="0.6"/>
    <line x1="-40" y1="2" x2="-20" y2="2" stroke="url(#strand1)" stroke-width="4" stroke-linecap="round"/>
    <text x="-15" y="5" fill="#4080d0" font-size="6">Template (blue)</text>
    <line x1="-40" y1="12" x2="-20" y2="12" stroke="url(#strand2)" stroke-width="4" stroke-linecap="round"/>
    <text x="-15" y="15" fill="#c03050" font-size="6">Template (red)</text>
    <line x1="-40" y1="22" x2="-20" y2="22" stroke="url(#leadingStrand)" stroke-width="4" stroke-linecap="round"/>
    <text x="-15" y="25" fill="#30b070" font-size="6">Leading (new)</text>
  </g>

  <!-- ============ ENZYME REFERENCE TABLE ============ -->
  <g id="enzymeTable" transform="translate(20,330)">
    <!-- Table border -->
    <rect x="0" y="0" width="710" height="220" rx="6" fill="#0c1220" stroke="#2a4060" stroke-width="1.2"/>

    <!-- Table title -->
    <text x="355" y="20" text-anchor="middle" fill="#c0d8f0" font-size="11" font-weight="bold" letter-spacing="1">ENZYMES &amp; PROTEINS IN DNA REPLICATION</text>
    <line x1="20" y1="26" x2="690" y2="26" stroke="#2a4060" stroke-width="0.8"/>

    <!-- Header row -->
    <rect x="5" y="32" width="700" height="22" rx="3" fill="url(#tableHeader)"/>
    <text x="100" y="47" text-anchor="middle" fill="#d0e4ff" font-size="8.5" font-weight="bold">Enzyme / Protein</text>
    <text x="310" y="47" text-anchor="middle" fill="#d0e4ff" font-size="8.5" font-weight="bold">Function</text>
    <text x="580" y="47" text-anchor="middle" fill="#d0e4ff" font-size="8.5" font-weight="bold">Location at Fork</text>

    <!-- Column dividers -->
    <line x1="190" y1="32" x2="190" y2="215" stroke="#2a4060" stroke-width="0.5"/>
    <line x1="450" y1="32" x2="450" y2="215" stroke="#2a4060" stroke-width="0.5"/>

    <!-- Row 1 - Helicase -->
    <rect x="5" y="55" width="700" height="22" rx="0" fill="url(#tableRow1)"/>
    <circle cx="25" cy="66" r="5" fill="url(#helicaseGrad)"/>
    <text x="100" y="70" text-anchor="middle" fill="#ff9060" font-size="8" font-weight="bold">Helicase (DnaB)</text>
    <text x="310" y="70" text-anchor="middle" fill="#c0c8d8" font-size="7.5">Unwinds parental dsDNA by breaking H-bonds between base pairs</text>
    <text x="580" y="70" text-anchor="middle" fill="#a0b0c8" font-size="7.5">Replication fork junction</text>

    <!-- Row 2 - Topoisomerase -->
    <rect x="5" y="77" width="700" height="22" rx="0" fill="url(#tableRow2)"/>
    <circle cx="25" cy="88" r="5" fill="url(#topoGrad)"/>
    <text x="100" y="92" text-anchor="middle" fill="#80ff80" font-size="8" font-weight="bold">Topoisomerase (Gyrase)</text>
    <text x="310" y="92" text-anchor="middle" fill="#c0c8d8" font-size="7.5">Relieves positive supercoiling ahead of the replication fork</text>
    <text x="580" y="92" text-anchor="middle" fill="#a0b0c8" font-size="7.5">Ahead of helicase</text>

    <!-- Row 3 - SSB -->
    <rect x="5" y="99" width="700" height="22" rx="0" fill="url(#tableRow1)"/>
    <circle cx="25" cy="110" r="5" fill="url(#ssbGrad)"/>
    <text x="100" y="114" text-anchor="middle" fill="#80e0e0" font-size="8" font-weight="bold">SSB Proteins</text>
    <text x="310" y="114" text-anchor="middle" fill="#c0c8d8" font-size="7.5">Stabilize single-stranded DNA; prevent re-annealing and degradation</text>
    <text x="580" y="114" text-anchor="middle" fill="#a0b0c8" font-size="7.5">Both template strands</text>

    <!-- Row 4 - Primase -->
    <rect x="5" y="121" width="700" height="22" rx="0" fill="url(#tableRow2)"/>
    <circle cx="25" cy="132" r="5" fill="url(#primaseGrad)"/>
    <text x="100" y="136" text-anchor="middle" fill="#c080ff" font-size="8" font-weight="bold">Primase (DnaG)</text>
    <text x="310" y="136" text-anchor="middle" fill="#c0c8d8" font-size="7.5">Synthesizes short RNA primers to initiate DNA synthesis</text>
    <text x="580" y="136" text-anchor="middle" fill="#a0b0c8" font-size="7.5">Lagging strand (each Okazaki fragment)</text>

    <!-- Row 5 - DNA Pol III -->
    <rect x="5" y="143" width="700" height="22" rx="0" fill="url(#tableRow1)"/>
    <circle cx="25" cy="154" r="5" fill="url(#pol3Grad)"/>
    <text x="100" y="158" text-anchor="middle" fill="#70c0ff" font-size="8" font-weight="bold">DNA Pol III</text>
    <text x="310" y="158" text-anchor="middle" fill="#c0c8d8" font-size="7.5">Main replicative polymerase; extends primers with new DNA (5' to 3')</text>
    <text x="580" y="158" text-anchor="middle" fill="#a0b0c8" font-size="7.5">Both leading and lagging strands</text>

    <!-- Row 6 - PCNA / Sliding Clamp -->
    <rect x="5" y="165" width="700" height="22" rx="0" fill="url(#tableRow2)"/>
    <circle cx="25" cy="176" r="5" fill="url(#pcnaGrad)"/>
    <text x="100" y="180" text-anchor="middle" fill="#e0b040" font-size="8" font-weight="bold">Sliding Clamp (&#946;/PCNA)</text>
    <text x="310" y="180" text-anchor="middle" fill="#c0c8d8" font-size="7.5">Ring-shaped processivity factor; tethers Pol III to the DNA template</text>
    <text x="580" y="180" text-anchor="middle" fill="#a0b0c8" font-size="7.5">Encircles DNA near Pol III</text>

    <!-- Row 7 - DNA Pol I -->
    <rect x="5" y="187" width="700" height="22" rx="0" fill="url(#tableRow1)"/>
    <circle cx="25" cy="198" r="5" fill="url(#pol1Grad)"/>
    <text x="100" y="202" text-anchor="middle" fill="#90c0e0" font-size="8" font-weight="bold">DNA Pol I</text>
    <text x="310" y="202" text-anchor="middle" fill="#c0c8d8" font-size="7.5">Removes RNA primers (5'&#8594;3' exonuclease) and fills gaps with DNA</text>
    <text x="580" y="202" text-anchor="middle" fill="#a0b0c8" font-size="7.5">Lagging strand (primer sites)</text>

    <!-- Row 8 - Ligase -->
    <rect x="5" y="209" width="700" height="11" rx="0" fill="url(#tableRow2)"/>
    <rect x="5" y="209" width="700" height="11" rx="0 0 3 3" fill="url(#tableRow2)"/>
    <circle cx="25" cy="215" r="4" fill="url(#ligaseGrad)"/>
    <text x="100" y="217" text-anchor="middle" fill="#ff80b0" font-size="8" font-weight="bold">DNA Ligase</text>
    <text x="310" y="217" text-anchor="middle" fill="#c0c8d8" font-size="7.5">Seals nicks between Okazaki fragments by forming phosphodiester bonds</text>
    <text x="580" y="217" text-anchor="middle" fill="#a0b0c8" font-size="7.5">Lagging strand (between fragments)</text>
  </g>

  <!-- ============ FOOTER ============ -->
  <text x="375" y="570" text-anchor="middle" fill="#405068" font-size="7" letter-spacing="0.5">Figure: DNA Replication Fork  |  Prokaryotic Model (E. coli)  |  Direction of replication: 5' &#8594; 3'</text>

</svg>