<svg xmlns="http://www.w3.org/2000/svg" viewBox="0 0 720 540" font-family="'Segoe UI', Arial, sans-serif" font-size="11">
  <title>Cellular Respiration Overview</title>

  <defs>
    <!-- Drop shadow filter -->
    <filter id="shadow" x="-4%" y="-4%" width="112%" height="112%">
      <feDropShadow dx="1.5" dy="1.5" stdDeviation="2.5" flood-color="#00000044"/>
    </filter>
    <filter id="shadowLight" x="-4%" y="-4%" width="112%" height="112%">
      <feDropShadow dx="1" dy="1" stdDeviation="1.5" flood-color="#00000030"/>
    </filter>
    <filter id="glow">
      <feGaussianBlur stdDeviation="2" result="blur"/>
      <feMerge><feMergeNode in="blur"/><feMergeNode in="SourceGraphic"/></feMerge>
    </filter>

    <!-- Section gradients -->
    <linearGradient id="glycolysisGrad" x1="0" y1="0" x2="0" y2="1">
      <stop offset="0%" stop-color="#fee2e2"/>
      <stop offset="100%" stop-color="#fecaca"/>
    </linearGradient>
    <linearGradient id="glycolysisHeaderGrad" x1="0" y1="0" x2="1" y2="0">
      <stop offset="0%" stop-color="#dc2626"/>
      <stop offset="100%" stop-color="#ef4444"/>
    </linearGradient>

    <linearGradient id="pyruvateGrad" x1="0" y1="0" x2="0" y2="1">
      <stop offset="0%" stop-color="#dbeafe"/>
      <stop offset="100%" stop-color="#bfdbfe"/>
    </linearGradient>
    <linearGradient id="pyruvateHeaderGrad" x1="0" y1="0" x2="1" y2="0">
      <stop offset="0%" stop-color="#2563eb"/>
      <stop offset="100%" stop-color="#3b82f6"/>
    </linearGradient>

    <linearGradient id="krebsGrad" x1="0" y1="0" x2="0" y2="1">
      <stop offset="0%" stop-color="#dcfce7"/>
      <stop offset="100%" stop-color="#bbf7d0"/>
    </linearGradient>
    <linearGradient id="krebsHeaderGrad" x1="0" y1="0" x2="1" y2="0">
      <stop offset="0%" stop-color="#16a34a"/>
      <stop offset="100%" stop-color="#22c55e"/>
    </linearGradient>

    <linearGradient id="etcGrad" x1="0" y1="0" x2="0" y2="1">
      <stop offset="0%" stop-color="#f3e8ff"/>
      <stop offset="100%" stop-color="#e9d5ff"/>
    </linearGradient>
    <linearGradient id="etcHeaderGrad" x1="0" y1="0" x2="1" y2="0">
      <stop offset="0%" stop-color="#7c3aed"/>
      <stop offset="100%" stop-color="#8b5cf6"/>
    </linearGradient>

    <!-- Krebs cycle radial gradient -->
    <radialGradient id="krebsCircleGrad" cx="50%" cy="50%" r="50%">
      <stop offset="0%" stop-color="#86efac"/>
      <stop offset="70%" stop-color="#4ade80"/>
      <stop offset="100%" stop-color="#22c55e"/>
    </radialGradient>

    <!-- Molecule box gradients -->
    <radialGradient id="glucoseGrad" cx="50%" cy="40%" r="60%">
      <stop offset="0%" stop-color="#fef3c7"/>
      <stop offset="100%" stop-color="#fde68a"/>
    </radialGradient>
    <radialGradient id="pyruvateBoxGrad" cx="50%" cy="40%" r="60%">
      <stop offset="0%" stop-color="#e0f2fe"/>
      <stop offset="100%" stop-color="#7dd3fc"/>
    </radialGradient>
    <radialGradient id="acetylGrad" cx="50%" cy="40%" r="60%">
      <stop offset="0%" stop-color="#d1fae5"/>
      <stop offset="100%" stop-color="#6ee7b7"/>
    </radialGradient>

    <!-- ETC complex gradients -->
    <linearGradient id="complexIGrad" x1="0" y1="0" x2="0" y2="1">
      <stop offset="0%" stop-color="#c4b5fd"/>
      <stop offset="50%" stop-color="#8b5cf6"/>
      <stop offset="100%" stop-color="#6d28d9"/>
    </linearGradient>
    <linearGradient id="complexIIGrad" x1="0" y1="0" x2="0" y2="1">
      <stop offset="0%" stop-color="#a5b4fc"/>
      <stop offset="50%" stop-color="#6366f1"/>
      <stop offset="100%" stop-color="#4f46e5"/>
    </linearGradient>
    <linearGradient id="complexIIIGrad" x1="0" y1="0" x2="0" y2="1">
      <stop offset="0%" stop-color="#c084fc"/>
      <stop offset="50%" stop-color="#9333ea"/>
      <stop offset="100%" stop-color="#7e22ce"/>
    </linearGradient>
    <linearGradient id="complexIVGrad" x1="0" y1="0" x2="0" y2="1">
      <stop offset="0%" stop-color="#f0abfc"/>
      <stop offset="50%" stop-color="#d946ef"/>
      <stop offset="100%" stop-color="#c026d3"/>
    </linearGradient>
    <linearGradient id="atpSynthaseGrad" x1="0" y1="0" x2="0" y2="1">
      <stop offset="0%" stop-color="#fbbf24"/>
      <stop offset="40%" stop-color="#f59e0b"/>
      <stop offset="100%" stop-color="#d97706"/>
    </linearGradient>

    <!-- Electron flow gradient -->
    <linearGradient id="electronFlowGrad" x1="0" y1="0" x2="1" y2="0">
      <stop offset="0%" stop-color="#7c3aed"/>
      <stop offset="50%" stop-color="#ec4899"/>
      <stop offset="100%" stop-color="#ef4444"/>
    </linearGradient>

    <!-- Arrow markers -->
    <marker id="arrowRed" markerWidth="8" markerHeight="6" refX="7" refY="3" orient="auto">
      <path d="M0,0 L8,3 L0,6 Z" fill="#dc2626"/>
    </marker>
    <marker id="arrowBlue" markerWidth="8" markerHeight="6" refX="7" refY="3" orient="auto">
      <path d="M0,0 L8,3 L0,6 Z" fill="#2563eb"/>
    </marker>
    <marker id="arrowGreen" markerWidth="8" markerHeight="6" refX="7" refY="3" orient="auto">
      <path d="M0,0 L8,3 L0,6 Z" fill="#16a34a"/>
    </marker>
    <marker id="arrowPurple" markerWidth="8" markerHeight="6" refX="7" refY="3" orient="auto">
      <path d="M0,0 L8,3 L0,6 Z" fill="#7c3aed"/>
    </marker>
    <marker id="arrowGray" markerWidth="8" markerHeight="6" refX="7" refY="3" orient="auto">
      <path d="M0,0 L8,3 L0,6 Z" fill="#6b7280"/>
    </marker>

    <!-- Table row backgrounds -->
    <linearGradient id="tableHeaderGrad" x1="0" y1="0" x2="1" y2="0">
      <stop offset="0%" stop-color="#1e293b"/>
      <stop offset="100%" stop-color="#334155"/>
    </linearGradient>
  </defs>

  <!-- Background -->
  <rect width="720" height="540" rx="8" fill="#f8fafc"/>

  <!-- Title -->
  <text x="360" y="26" text-anchor="middle" font-size="17" fill="#0f172a" font-weight="700" letter-spacing="0.3">Cellular Respiration &mdash; Energy Yield Overview</text>
  <line x1="160" y1="32" x2="560" y2="32" stroke="#cbd5e1" stroke-width="0.8"/>

  <!-- ===== GLYCOLYSIS SECTION ===== -->
  <g filter="url(#shadow)">
    <rect x="14" y="42" width="220" height="150" rx="8" fill="url(#glycolysisGrad)" stroke="#fca5a5" stroke-width="0.8"/>
    <rect x="14" y="42" width="220" height="22" rx="8" fill="url(#glycolysisHeaderGrad)"/>
    <rect x="14" y="56" width="220" height="8" fill="url(#glycolysisHeaderGrad)"/>
    <text x="124" y="58" text-anchor="middle" font-size="11.5" fill="white" font-weight="700">GLYCOLYSIS</text>
    <text x="124" y="71" text-anchor="middle" font-size="8.5" fill="#991b1b" font-style="italic">(Cytoplasm)</text>
  </g>

  <!-- Glucose box -->
  <g filter="url(#shadowLight)">
    <rect x="70" y="80" width="108" height="26" rx="12" fill="url(#glucoseGrad)" stroke="#f59e0b" stroke-width="0.8"/>
    <text x="124" y="96" text-anchor="middle" font-size="11" fill="#92400e" font-weight="600">Glucose (C&#x2086;H&#x2081;&#x2082;O&#x2086;)</text>
  </g>

  <!-- Arrow glucose to pyruvate -->
  <line x1="124" y1="106" x2="124" y2="132" stroke="#dc2626" stroke-width="1.5" marker-end="url(#arrowRed)"/>
  <!-- Side labels on arrow -->
  <text x="60" y="120" text-anchor="end" font-size="8.5" fill="#dc2626" font-weight="600">2 NAD&#x207A; &#x2192; 2 NADH</text>
  <text x="140" y="118" font-size="8.5" fill="#dc2626" font-weight="600">2 ADP &#x2192; 2 ATP</text>
  <text x="140" y="128" font-size="7.5" fill="#b91c1c" font-style="italic">(net)</text>

  <!-- 2 Pyruvate box -->
  <g filter="url(#shadowLight)">
    <rect x="65" y="133" width="118" height="26" rx="12" fill="url(#pyruvateBoxGrad)" stroke="#38bdf8" stroke-width="0.8"/>
    <text x="124" y="150" text-anchor="middle" font-size="11" fill="#0c4a6e" font-weight="600">2 Pyruvate (C&#x2083;)</text>
  </g>

  <!-- Glycolysis yield summary -->
  <text x="124" y="180" text-anchor="middle" font-size="8" fill="#7f1d1d" font-weight="600">Yield: 2 ATP + 2 NADH</text>

  <!-- ===== CONNECTING ARROW: Glycolysis to Pyruvate Oxidation ===== -->
  <line x1="234" y1="146" x2="262" y2="146" stroke="#6b7280" stroke-width="1.5" marker-end="url(#arrowGray)"/>

  <!-- ===== PYRUVATE OXIDATION SECTION ===== -->
  <g filter="url(#shadow)">
    <rect x="268" y="42" width="190" height="150" rx="8" fill="url(#pyruvateGrad)" stroke="#93c5fd" stroke-width="0.8"/>
    <rect x="268" y="42" width="190" height="22" rx="8" fill="url(#pyruvateHeaderGrad)"/>
    <rect x="268" y="56" width="190" height="8" fill="url(#pyruvateHeaderGrad)"/>
    <text x="363" y="58" text-anchor="middle" font-size="11.5" fill="white" font-weight="700">PYRUVATE OXIDATION</text>
    <text x="363" y="71" text-anchor="middle" font-size="8.5" fill="#1e40af" font-style="italic">(Mitochondrial Matrix)</text>
  </g>

  <!-- 2 Pyruvate input -->
  <g filter="url(#shadowLight)">
    <rect x="310" y="80" width="106" height="24" rx="12" fill="url(#pyruvateBoxGrad)" stroke="#38bdf8" stroke-width="0.8"/>
    <text x="363" y="96" text-anchor="middle" font-size="10.5" fill="#0c4a6e" font-weight="600">2 Pyruvate</text>
  </g>

  <!-- Arrow pyruvate to acetyl -->
  <line x1="363" y1="104" x2="363" y2="132" stroke="#2563eb" stroke-width="1.5" marker-end="url(#arrowBlue)"/>
  <text x="290" y="117" font-size="8.5" fill="#2563eb" font-weight="600">2 CO&#x2082; released</text>
  <text x="383" y="117" font-size="8.5" fill="#2563eb" font-weight="600">2 NAD&#x207A; &#x2192; 2 NADH</text>

  <!-- 2 Acetyl-CoA box -->
  <g filter="url(#shadowLight)">
    <rect x="305" y="133" width="116" height="26" rx="12" fill="url(#acetylGrad)" stroke="#34d399" stroke-width="0.8"/>
    <text x="363" y="150" text-anchor="middle" font-size="10.5" fill="#065f46" font-weight="600">2 Acetyl-CoA (C&#x2082;)</text>
  </g>

  <!-- Pyruvate oxidation yield -->
  <text x="363" y="180" text-anchor="middle" font-size="8" fill="#1e3a5f" font-weight="600">Yield: 2 NADH + 2 CO&#x2082;</text>

  <!-- ===== CONNECTING ARROW: Pyruvate Ox to Krebs ===== -->
  <path d="M363,192 L363,205 Q363,215 353,215 L200,215 Q190,215 190,225 L190,235" stroke="#6b7280" stroke-width="1.5" fill="none" marker-end="url(#arrowGray)"/>

  <!-- ===== KREBS CYCLE SECTION ===== -->
  <g filter="url(#shadow)">
    <rect x="14" y="200" width="330" height="185" rx="8" fill="url(#krebsGrad)" stroke="#86efac" stroke-width="0.8"/>
    <rect x="14" y="200" width="330" height="22" rx="8" fill="url(#krebsHeaderGrad)"/>
    <rect x="14" y="214" width="330" height="8" fill="url(#krebsHeaderGrad)"/>
    <text x="179" y="216" text-anchor="middle" font-size="11.5" fill="white" font-weight="700">KREBS CYCLE (Citric Acid Cycle)</text>
    <text x="179" y="231" text-anchor="middle" font-size="8.5" fill="#166534" font-style="italic">(Mitochondrial Matrix &mdash; 2 turns per glucose)</text>
  </g>

  <!-- Krebs cycle circle -->
  <circle cx="120" cy="320" r="52" fill="none" stroke="url(#krebsCircleGrad)" stroke-width="4" opacity="0.7"/>
  <!-- Circular arrow arcs -->
  <path d="M120,268 A52,52 0 0,1 172,320" fill="none" stroke="#16a34a" stroke-width="2.2" marker-end="url(#arrowGreen)"/>
  <path d="M172,320 A52,52 0 0,1 120,372" fill="none" stroke="#16a34a" stroke-width="2.2" marker-end="url(#arrowGreen)"/>
  <path d="M120,372 A52,52 0 0,1 68,320" fill="none" stroke="#16a34a" stroke-width="2.2" marker-end="url(#arrowGreen)"/>
  <path d="M68,320 A52,52 0 0,1 120,268" fill="none" stroke="#16a34a" stroke-width="2.2" marker-end="url(#arrowGreen)"/>

  <!-- Cycle intermediates -->
  <text x="120" y="273" text-anchor="middle" font-size="8" fill="#15803d" font-weight="600">Citrate</text>
  <text x="176" y="318" text-anchor="start" font-size="8" fill="#15803d" font-weight="600">&#x3B1;-KG</text>
  <text x="120" y="380" text-anchor="middle" font-size="8" fill="#15803d" font-weight="600">Succinate</text>
  <text x="42" y="318" text-anchor="end" font-size="8" fill="#15803d" font-weight="600">OAA</text>
  <!-- Acetyl-CoA entering -->
  <text x="120" y="258" text-anchor="middle" font-size="8.5" fill="#065f46" font-weight="700">Acetyl-CoA &#x2192;</text>

  <!-- Krebs outputs -->
  <g transform="translate(210, 250)">
    <text x="0" y="0" font-size="9" fill="#166534" font-weight="700">Per 2 turns:</text>
    <text x="0" y="16" font-size="9" fill="#166534">&#x2022; 6 NADH</text>
    <text x="0" y="30" font-size="9" fill="#166534">&#x2022; 2 FADH&#x2082;</text>
    <text x="0" y="44" font-size="9" fill="#166534">&#x2022; 2 GTP (&#x2248; 2 ATP)</text>
    <text x="0" y="58" font-size="9" fill="#166534">&#x2022; 4 CO&#x2082; released</text>
    <rect x="-6" y="66" width="120" height="18" rx="6" fill="#166534" opacity="0.12"/>
    <text x="54" y="79" text-anchor="middle" font-size="8.5" fill="#14532d" font-weight="700">Yield: 2 ATP + 6 NADH + 2 FADH&#x2082;</text>
  </g>

  <!-- ===== CONNECTING ARROW: Krebs to ETC (NADH/FADH2) ===== -->
  <path d="M344,320 L368,320" stroke="#6b7280" stroke-width="1.5" fill="none" marker-end="url(#arrowGray)"/>
  <text x="356" y="312" text-anchor="middle" font-size="7.5" fill="#6b7280" font-weight="600">NADH</text>
  <text x="356" y="334" text-anchor="middle" font-size="7.5" fill="#6b7280" font-weight="600">FADH&#x2082;</text>

  <!-- ===== ETC SECTION ===== -->
  <g filter="url(#shadow)">
    <rect x="374" y="200" width="336" height="185" rx="8" fill="url(#etcGrad)" stroke="#d8b4fe" stroke-width="0.8"/>
    <rect x="374" y="200" width="336" height="22" rx="8" fill="url(#etcHeaderGrad)"/>
    <rect x="374" y="214" width="336" height="8" fill="url(#etcHeaderGrad)"/>
    <text x="542" y="216" text-anchor="middle" font-size="11.5" fill="white" font-weight="700">ELECTRON TRANSPORT CHAIN</text>
    <text x="542" y="231" text-anchor="middle" font-size="8.5" fill="#581c87" font-style="italic">(Inner Mitochondrial Membrane)</text>
  </g>

  <!-- ETC Complexes -->
  <!-- Complex I -->
  <g filter="url(#shadowLight)">
    <rect x="388" y="244" width="46" height="62" rx="6" fill="url(#complexIGrad)" stroke="#7c3aed" stroke-width="0.6"/>
    <text x="411" y="270" text-anchor="middle" font-size="8.5" fill="white" font-weight="700">I</text>
    <text x="411" y="282" text-anchor="middle" font-size="6.5" fill="#ede9fe">NADH</text>
    <text x="411" y="291" text-anchor="middle" font-size="6.5" fill="#ede9fe">DH</text>
  </g>

  <!-- Complex II -->
  <g filter="url(#shadowLight)">
    <rect x="444" y="254" width="40" height="52" rx="6" fill="url(#complexIIGrad)" stroke="#6366f1" stroke-width="0.6"/>
    <text x="464" y="276" text-anchor="middle" font-size="8.5" fill="white" font-weight="700">II</text>
    <text x="464" y="288" text-anchor="middle" font-size="6.5" fill="#e0e7ff">SDH</text>
  </g>

  <!-- Complex III -->
  <g filter="url(#shadowLight)">
    <rect x="496" y="244" width="46" height="62" rx="6" fill="url(#complexIIIGrad)" stroke="#9333ea" stroke-width="0.6"/>
    <text x="519" y="270" text-anchor="middle" font-size="8.5" fill="white" font-weight="700">III</text>
    <text x="519" y="282" text-anchor="middle" font-size="6.5" fill="#f3e8ff">Cyt bc1</text>
  </g>

  <!-- Complex IV -->
  <g filter="url(#shadowLight)">
    <rect x="554" y="244" width="46" height="62" rx="6" fill="url(#complexIVGrad)" stroke="#d946ef" stroke-width="0.6"/>
    <text x="577" y="270" text-anchor="middle" font-size="8.5" fill="white" font-weight="700">IV</text>
    <text x="577" y="282" text-anchor="middle" font-size="6.5" fill="#fdf4ff">Cyt c</text>
    <text x="577" y="291" text-anchor="middle" font-size="6.5" fill="#fdf4ff">Oxidase</text>
  </g>

  <!-- Electron flow dotted path -->
  <path d="M434,275 Q439,260 454,275 Q469,290 486,275 Q496,260 519,275 Q532,290 554,275" fill="none" stroke="url(#electronFlowGrad)" stroke-width="1.8" stroke-dasharray="3,2" opacity="0.8"/>
  <text x="500" y="242" text-anchor="middle" font-size="7" fill="#7c3aed" font-weight="600" font-style="italic">e&#x207B; flow &#x2192;</text>

  <!-- O2 as final electron acceptor -->
  <g filter="url(#shadowLight)">
    <circle cx="618" cy="275" r="16" fill="#dbeafe" stroke="#3b82f6" stroke-width="0.8"/>
    <text x="618" y="272" text-anchor="middle" font-size="9" fill="#1e40af" font-weight="700">O&#x2082;</text>
    <text x="618" y="282" text-anchor="middle" font-size="6.5" fill="#1e40af">&#x2192; H&#x2082;O</text>
  </g>
  <line x1="600" y1="275" x2="600" y2="275" stroke="#3b82f6" stroke-width="1"/>
  <text x="606" y="256" text-anchor="middle" font-size="6.5" fill="#1e3a8a" font-style="italic">final acceptor</text>

  <!-- H+ gradient arrows -->
  <text x="460" y="322" font-size="7.5" fill="#7c3aed" font-weight="600">H&#x207A; pumped to intermembrane space</text>
  <path d="M411,306 L411,316 M464,306 L464,316 M519,306 L519,316 M577,306 L577,316" stroke="#a78bfa" stroke-width="1.2" marker-end="url(#arrowPurple)"/>

  <!-- ATP Synthase (enzyme-like shape) -->
  <g filter="url(#shadow)" transform="translate(635, 240)">
    <!-- Stalk -->
    <rect x="6" y="20" width="18" height="30" rx="4" fill="#fbbf24" stroke="#d97706" stroke-width="0.6"/>
    <!-- Head (F1) - rounded -->
    <ellipse cx="15" cy="58" rx="24" ry="14" fill="url(#atpSynthaseGrad)" stroke="#d97706" stroke-width="0.8"/>
    <text x="15" y="55" text-anchor="middle" font-size="6.5" fill="white" font-weight="700">ATP</text>
    <text x="15" y="63" text-anchor="middle" font-size="6" fill="white" font-weight="600">Synthase</text>
    <!-- F0 rotor -->
    <circle cx="15" cy="17" r="11" fill="#fde68a" stroke="#f59e0b" stroke-width="0.8"/>
    <text x="15" y="20" text-anchor="middle" font-size="6" fill="#92400e" font-weight="600">F&#x2080;</text>
    <!-- H+ arrow in -->
    <path d="M-2,17 L5,17" stroke="#7c3aed" stroke-width="1" marker-end="url(#arrowPurple)"/>
    <text x="-6" y="14" text-anchor="end" font-size="6" fill="#7c3aed">H&#x207A;</text>
  </g>

  <!-- ETC yield label -->
  <rect x="390" y="360" width="130" height="18" rx="6" fill="#7c3aed" opacity="0.12"/>
  <text x="455" y="373" text-anchor="middle" font-size="8.5" fill="#581c87" font-weight="700">Yield: ~34 ATP (via oxidative phosphorylation)</text>

  <!-- ===== TOTAL ATP YIELD TABLE ===== -->
  <g filter="url(#shadow)" transform="translate(14, 396)">
    <!-- Table background -->
    <rect width="420" height="130" rx="6" fill="white" stroke="#e2e8f0" stroke-width="0.8"/>

    <!-- Header row -->
    <rect width="420" height="22" rx="6" fill="url(#tableHeaderGrad)"/>
    <rect y="14" width="420" height="8" fill="url(#tableHeaderGrad)"/>
    <text x="10" y="16" font-size="9.5" fill="white" font-weight="700">Stage</text>
    <text x="180" y="16" font-size="9.5" fill="white" font-weight="700">ATP (substrate)</text>
    <text x="280" y="16" font-size="9.5" fill="white" font-weight="700">NADH</text>
    <text x="340" y="16" font-size="9.5" fill="white" font-weight="700">FADH&#x2082;</text>
    <text x="390" y="16" text-anchor="middle" font-size="9.5" fill="white" font-weight="700">ATP equiv.</text>

    <!-- Row 1: Glycolysis (light) -->
    <rect y="22" width="420" height="20" fill="#fff7ed"/>
    <text x="10" y="36" font-size="9" fill="#92400e" font-weight="600">Glycolysis</text>
    <text x="210" y="36" text-anchor="middle" font-size="9" fill="#451a03">2</text>
    <text x="295" y="36" text-anchor="middle" font-size="9" fill="#451a03">2</text>
    <text x="350" y="36" text-anchor="middle" font-size="9" fill="#451a03">&mdash;</text>
    <text x="390" y="36" text-anchor="middle" font-size="9" fill="#451a03">~7</text>

    <!-- Row 2: Pyruvate Oxidation (white) -->
    <rect y="42" width="420" height="20" fill="white"/>
    <text x="10" y="56" font-size="9" fill="#1e40af" font-weight="600">Pyruvate Oxidation</text>
    <text x="210" y="56" text-anchor="middle" font-size="9" fill="#172554">&mdash;</text>
    <text x="295" y="56" text-anchor="middle" font-size="9" fill="#172554">2</text>
    <text x="350" y="56" text-anchor="middle" font-size="9" fill="#172554">&mdash;</text>
    <text x="390" y="56" text-anchor="middle" font-size="9" fill="#172554">~5</text>

    <!-- Row 3: Krebs Cycle (light) -->
    <rect y="62" width="420" height="20" fill="#f0fdf4"/>
    <text x="10" y="76" font-size="9" fill="#166534" font-weight="600">Krebs Cycle (x2)</text>
    <text x="210" y="76" text-anchor="middle" font-size="9" fill="#14532d">2</text>
    <text x="295" y="76" text-anchor="middle" font-size="9" fill="#14532d">6</text>
    <text x="350" y="76" text-anchor="middle" font-size="9" fill="#14532d">2</text>
    <text x="390" y="76" text-anchor="middle" font-size="9" fill="#14532d">~22</text>

    <!-- Row 4: ETC (white) -->
    <rect y="82" width="420" height="20" fill="white"/>
    <text x="10" y="96" font-size="9" fill="#7c3aed" font-weight="600">Electron Transport Chain</text>
    <text x="210" y="96" text-anchor="middle" font-size="9" fill="#3b0764">~34*</text>
    <text x="295" y="96" text-anchor="middle" font-size="9" fill="#3b0764" font-style="italic">consumed</text>
    <text x="350" y="96" text-anchor="middle" font-size="9" fill="#3b0764" font-style="italic">consumed</text>
    <text x="390" y="96" text-anchor="middle" font-size="9" fill="#3b0764">~34</text>

    <!-- Total row -->
    <rect y="102" width="420" height="22" rx="0" fill="#1e293b"/>
    <rect y="102" width="420" height="8" fill="#1e293b"/>
    <rect y="118" width="420" height="6" rx="6" fill="#1e293b"/>
    <text x="10" y="117" font-size="10" fill="white" font-weight="700">TOTAL per glucose</text>
    <text x="390" y="117" text-anchor="middle" font-size="11" fill="#fbbf24" font-weight="700">~30&ndash;32 ATP</text>

    <!-- Footnote -->
    <text x="10" y="129" font-size="7" fill="#94a3b8">*Via oxidative phosphorylation; ~2.5 ATP/NADH, ~1.5 ATP/FADH&#x2082;</text>
  </g>

  <!-- ===== ANAEROBIC PATHWAY NOTE ===== -->
  <g filter="url(#shadowLight)" transform="translate(452, 396)">
    <rect width="256" height="72" rx="8" fill="#fef3c7" stroke="#f59e0b" stroke-width="0.8"/>
    <text x="128" y="16" text-anchor="middle" font-size="10" fill="#92400e" font-weight="700">Anaerobic Conditions</text>
    <line x1="30" y1="22" x2="226" y2="22" stroke="#fbbf24" stroke-width="0.5"/>
    <text x="128" y="36" text-anchor="middle" font-size="8.5" fill="#78350f">Without O&#x2082;, ETC cannot function.</text>
    <text x="128" y="49" text-anchor="middle" font-size="8.5" fill="#78350f">Pyruvate &#x2192; Lactate (animals) or Ethanol (yeast)</text>
    <text x="128" y="62" text-anchor="middle" font-size="8.5" fill="#78350f">Net yield: only <tspan font-weight="700">2 ATP</tspan> per glucose (glycolysis only)</text>
  </g>

  <!-- ===== Key note at bottom ===== -->
  <g transform="translate(452, 478)">
    <rect width="256" height="48" rx="8" fill="#f1f5f9" stroke="#cbd5e1" stroke-width="0.6" filter="url(#shadowLight)"/>
    <text x="128" y="16" text-anchor="middle" font-size="9" fill="#475569" font-weight="700">Key Electron Carriers</text>
    <text x="128" y="30" text-anchor="middle" font-size="8" fill="#64748b">NAD&#x207A;/NADH &amp; FAD/FADH&#x2082; shuttle electrons to ETC</text>
    <text x="128" y="42" text-anchor="middle" font-size="8" fill="#64748b">Chemiosmosis: H&#x207A; gradient drives ATP Synthase</text>
  </g>

</svg>
