<svg xmlns="http://www.w3.org/2000/svg" viewBox="0 0 750 680" font-family="'Segoe UI', Arial, sans-serif">
  <title>Heart Anatomy - Professional Medical Illustration</title>
  <defs>
    <!-- Muscle fiber pattern -->
    <pattern id="muscleFiber" patternUnits="userSpaceOnUse" width="6" height="6" patternTransform="rotate(35)">
      <line x1="0" y1="0" x2="0" y2="6" stroke="#a0524a" stroke-width="0.7" opacity="0.25"/>
    </pattern>
    <pattern id="muscleFiberL" patternUnits="userSpaceOnUse" width="5" height="5" patternTransform="rotate(-25)">
      <line x1="0" y1="0" x2="0" y2="5" stroke="#8b4040" stroke-width="0.6" opacity="0.2"/>
    </pattern>
    <!-- Endocardium pattern -->
    <pattern id="endocardium" patternUnits="userSpaceOnUse" width="12" height="12">
      <circle cx="6" cy="6" r="0.5" fill="#e8c0b8" opacity="0.3"/>
    </pattern>

    <!-- Pericardium gradient -->
    <radialGradient id="pericardiumG" cx="50%" cy="45%" r="55%">
      <stop offset="0%" stop-color="#f5e6d0" stop-opacity="0.15"/>
      <stop offset="70%" stop-color="#e8cdb0" stop-opacity="0.3"/>
      <stop offset="100%" stop-color="#d4ad82" stop-opacity="0.45"/>
    </radialGradient>

    <!-- Myocardium gradients -->
    <radialGradient id="myocardiumG" cx="50%" cy="50%" r="55%">
      <stop offset="0%" stop-color="#d4736a"/>
      <stop offset="50%" stop-color="#b85550"/>
      <stop offset="100%" stop-color="#8b3a35"/>
    </radialGradient>
    <linearGradient id="myoWallL" x1="0%" y1="0%" x2="100%" y2="0%">
      <stop offset="0%" stop-color="#c46058"/>
      <stop offset="50%" stop-color="#a84842"/>
      <stop offset="100%" stop-color="#8b3530"/>
    </linearGradient>
    <linearGradient id="myoWallR" x1="100%" y1="0%" x2="0%" y2="0%">
      <stop offset="0%" stop-color="#c46058"/>
      <stop offset="50%" stop-color="#a84842"/>
      <stop offset="100%" stop-color="#8b3530"/>
    </linearGradient>

    <!-- Chamber gradients - Deoxygenated (right side) -->
    <radialGradient id="raGrad" cx="45%" cy="40%" r="55%">
      <stop offset="0%" stop-color="#7aaad4"/>
      <stop offset="40%" stop-color="#5a8fbf"/>
      <stop offset="100%" stop-color="#3a6b9f"/>
    </radialGradient>
    <radialGradient id="rvGrad" cx="45%" cy="35%" r="55%">
      <stop offset="0%" stop-color="#6d9ec8"/>
      <stop offset="40%" stop-color="#4d82b2"/>
      <stop offset="100%" stop-color="#2d5f8f"/>
    </radialGradient>

    <!-- Chamber gradients - Oxygenated (left side) -->
    <radialGradient id="laGrad" cx="55%" cy="40%" r="55%">
      <stop offset="0%" stop-color="#e06050"/>
      <stop offset="40%" stop-color="#c0392b"/>
      <stop offset="100%" stop-color="#962d22"/>
    </radialGradient>
    <radialGradient id="lvGrad" cx="55%" cy="35%" r="55%">
      <stop offset="0%" stop-color="#d45040"/>
      <stop offset="40%" stop-color="#b03020"/>
      <stop offset="100%" stop-color="#882518"/>
    </radialGradient>

    <!-- Vessel gradients -->
    <linearGradient id="aortaG" x1="0%" y1="0%" x2="100%" y2="0%">
      <stop offset="0%" stop-color="#d45040"/>
      <stop offset="30%" stop-color="#e87060"/>
      <stop offset="70%" stop-color="#e87060"/>
      <stop offset="100%" stop-color="#b03020"/>
    </linearGradient>
    <linearGradient id="aortaInnerG" x1="0%" y1="0%" x2="100%" y2="0%">
      <stop offset="0%" stop-color="#c0392b"/>
      <stop offset="50%" stop-color="#e05545"/>
      <stop offset="100%" stop-color="#a02818"/>
    </linearGradient>
    <linearGradient id="svcG" x1="0%" y1="0%" x2="100%" y2="0%">
      <stop offset="0%" stop-color="#3a6b9f"/>
      <stop offset="30%" stop-color="#5a90c0"/>
      <stop offset="70%" stop-color="#5a90c0"/>
      <stop offset="100%" stop-color="#2d5580"/>
    </linearGradient>
    <linearGradient id="svcInnerG" x1="0%" y1="0%" x2="100%" y2="0%">
      <stop offset="0%" stop-color="#3060a0"/>
      <stop offset="50%" stop-color="#4a80b8"/>
      <stop offset="100%" stop-color="#2a5585"/>
    </linearGradient>
    <linearGradient id="ivcG" x1="0%" y1="0%" x2="100%" y2="0%">
      <stop offset="0%" stop-color="#3a6b9f"/>
      <stop offset="30%" stop-color="#5a90c0"/>
      <stop offset="70%" stop-color="#5a90c0"/>
      <stop offset="100%" stop-color="#2d5580"/>
    </linearGradient>
    <linearGradient id="paG" x1="0%" y1="0%" x2="100%" y2="0%">
      <stop offset="0%" stop-color="#3a6b9f"/>
      <stop offset="30%" stop-color="#5a90c0"/>
      <stop offset="70%" stop-color="#5a90c0"/>
      <stop offset="100%" stop-color="#2d5580"/>
    </linearGradient>
    <linearGradient id="paInnerG" x1="0%" y1="0%" x2="100%" y2="0%">
      <stop offset="0%" stop-color="#3060a0"/>
      <stop offset="50%" stop-color="#4a80b8"/>
      <stop offset="100%" stop-color="#2a5585"/>
    </linearGradient>
    <linearGradient id="pvG" x1="0%" y1="0%" x2="100%" y2="0%">
      <stop offset="0%" stop-color="#b03020"/>
      <stop offset="30%" stop-color="#d45545"/>
      <stop offset="70%" stop-color="#d45545"/>
      <stop offset="100%" stop-color="#962518"/>
    </linearGradient>
    <linearGradient id="pvInnerG" x1="0%" y1="0%" x2="100%" y2="0%">
      <stop offset="0%" stop-color="#a82818"/>
      <stop offset="50%" stop-color="#c84535"/>
      <stop offset="100%" stop-color="#902015"/>
    </linearGradient>

    <!-- Valve gradients -->
    <linearGradient id="valveG" x1="0%" y1="0%" x2="0%" y2="100%">
      <stop offset="0%" stop-color="#f0e0d0"/>
      <stop offset="40%" stop-color="#e0c8b0"/>
      <stop offset="100%" stop-color="#c8a888"/>
    </linearGradient>
    <linearGradient id="valveEdgeG" x1="0%" y1="0%" x2="0%" y2="100%">
      <stop offset="0%" stop-color="#d8b898"/>
      <stop offset="100%" stop-color="#b09070"/>
    </linearGradient>

    <!-- Shadow filters -->
    <filter id="heartShadow" x="-10%" y="-5%" width="120%" height="120%">
      <feGaussianBlur in="SourceAlpha" stdDeviation="8"/>
      <feOffset dx="4" dy="6" result="offsetblur"/>
      <feFlood flood-color="#2a1510" flood-opacity="0.35"/>
      <feComposite in2="offsetblur" operator="in"/>
      <feMerge><feMergeNode/><feMergeNode in="SourceGraphic"/></feMerge>
    </filter>
    <filter id="vesselShadow" x="-15%" y="-15%" width="130%" height="140%">
      <feGaussianBlur in="SourceAlpha" stdDeviation="3"/>
      <feOffset dx="2" dy="3" result="offsetblur"/>
      <feFlood flood-color="#1a0a08" flood-opacity="0.25"/>
      <feComposite in2="offsetblur" operator="in"/>
      <feMerge><feMergeNode/><feMergeNode in="SourceGraphic"/></feMerge>
    </filter>
    <filter id="innerGlow">
      <feGaussianBlur in="SourceAlpha" stdDeviation="4"/>
      <feOffset dx="0" dy="0"/>
      <feFlood flood-color="#000" flood-opacity="0.3"/>
      <feComposite in2="SourceAlpha" operator="in"/>
    </filter>
    <filter id="softGlow">
      <feGaussianBlur stdDeviation="2"/>
    </filter>
    <filter id="textShadow">
      <feDropShadow dx="0.5" dy="0.5" stdDeviation="0.5" flood-color="#000" flood-opacity="0.3"/>
    </filter>

    <!-- Coronary artery gradient -->
    <linearGradient id="coronaryG" x1="0%" y1="0%" x2="100%" y2="0%">
      <stop offset="0%" stop-color="#e06050"/>
      <stop offset="50%" stop-color="#f08070"/>
      <stop offset="100%" stop-color="#d04535"/>
    </linearGradient>

    <!-- Blood flow arrow marker -->
    <marker id="flowArrow" markerWidth="6" markerHeight="4" refX="5" refY="2" orient="auto">
      <path d="M0,0 L6,2 L0,4 Z" fill="#fff" opacity="0.7"/>
    </marker>
    <marker id="flowArrowBlue" markerWidth="6" markerHeight="4" refX="5" refY="2" orient="auto">
      <path d="M0,0 L6,2 L0,4 Z" fill="#a0d0f0" opacity="0.6"/>
    </marker>
    <marker id="flowArrowRed" markerWidth="6" markerHeight="4" refX="5" refY="2" orient="auto">
      <path d="M0,0 L6,2 L0,4 Z" fill="#f0a0a0" opacity="0.6"/>
    </marker>

    <!-- Background gradient -->
    <radialGradient id="bgGrad" cx="50%" cy="40%" r="60%">
      <stop offset="0%" stop-color="#f8f4f0"/>
      <stop offset="100%" stop-color="#e8e0d8"/>
    </radialGradient>
  </defs>

  <!-- Background -->
  <rect width="750" height="680" fill="url(#bgGrad)" rx="8"/>
  <rect width="750" height="680" fill="none" stroke="#c0b0a0" stroke-width="2" rx="8"/>

  <!-- Title -->
  <text x="375" y="28" text-anchor="middle" font-size="18" font-weight="bold" fill="#2c1810" letter-spacing="1">CARDIAC ANATOMY &amp; BLOOD FLOW</text>
  <line x1="150" y1="34" x2="600" y2="34" stroke="#8b6050" stroke-width="0.8" opacity="0.4"/>

  <!-- ==================== GREAT VESSELS ==================== -->
  <g filter="url(#vesselShadow)">

    <!-- SUPERIOR VENA CAVA (right, deoxygenated) -->
    <g>
      <!-- Outer wall -->
      <path d="M220,38 C218,38 210,40 208,55 L208,140 C208,148 212,152 218,152 L242,152 C248,152 252,148 252,140 L252,55 C250,40 242,38 240,38 Z" fill="url(#svcG)" stroke="#2a4a70" stroke-width="1.2"/>
      <!-- Inner lumen -->
      <path d="M224,42 C222,44 218,48 216,58 L216,138 C216,144 220,148 224,148 L236,148 C240,148 244,144 244,138 L244,58 C242,48 238,44 236,42 Z" fill="url(#svcInnerG)"/>
      <!-- Highlight -->
      <path d="M226,50 L226,142" stroke="#7ab0d8" stroke-width="1.5" opacity="0.3" stroke-linecap="round"/>
      <!-- Blood flow -->
      <path d="M230,55 L230,130" stroke="#a0d0f0" stroke-width="1" opacity="0.4" stroke-dasharray="4,6" marker-end="url(#flowArrowBlue)"/>
    </g>

    <!-- INFERIOR VENA CAVA (right lower, deoxygenated) -->
    <g>
      <path d="M210,370 C208,375 206,385 206,400 L206,460 C206,475 210,485 218,488 L238,488 C246,485 250,475 250,460 L250,400 C250,385 248,375 246,370 Z" fill="url(#ivcG)" stroke="#2a4a70" stroke-width="1.2"/>
      <path d="M218,374 L218,458 C218,468 222,475 228,478 L228,478 C234,475 238,468 238,458 L238,374" fill="url(#svcInnerG)"/>
      <path d="M224,382 L224,465" stroke="#7ab0d8" stroke-width="1.5" opacity="0.3" stroke-linecap="round"/>
      <path d="M228,455 L228,385" stroke="#a0d0f0" stroke-width="1" opacity="0.4" stroke-dasharray="4,6" marker-end="url(#flowArrowBlue)"/>
    </g>

    <!-- PULMONARY ARTERY (from RV, curves left, deoxygenated) -->
    <g>
      <!-- Outer -->
      <path d="M310,140 C310,120 320,90 340,70 C360,50 390,42 420,45 C430,46 435,50 435,58" fill="none" stroke="url(#paG)" stroke-width="22" stroke-linecap="round"/>
      <!-- Inner wall lines -->
      <path d="M310,140 C310,120 320,90 340,70 C360,50 390,42 420,45 C430,46 435,50 435,58" fill="none" stroke="#2a4a70" stroke-width="24" stroke-linecap="round" opacity="0.15"/>
      <path d="M310,140 C310,120 320,90 340,70 C360,50 390,42 420,45 C430,46 435,50 435,58" fill="none" stroke="url(#paInnerG)" stroke-width="14" stroke-linecap="round"/>
      <!-- Highlight -->
      <path d="M312,136 C312,118 322,90 340,72 C358,54 388,46 418,49" fill="none" stroke="#7ab0d8" stroke-width="2" opacity="0.25" stroke-linecap="round"/>
      <!-- Flow -->
      <path d="M315,132 C318,110 330,85 348,68 C368,52 395,48 418,50" stroke="#a0d0f0" stroke-width="1" opacity="0.5" stroke-dasharray="4,6" fill="none" marker-end="url(#flowArrowBlue)"/>
      <!-- PA bifurcation hint -->
      <path d="M430,50 C445,42 460,38 475,40" fill="none" stroke="url(#paG)" stroke-width="12" stroke-linecap="round" opacity="0.7"/>
      <path d="M430,56 C440,62 450,68 458,78" fill="none" stroke="url(#paG)" stroke-width="12" stroke-linecap="round" opacity="0.7"/>
    </g>

    <!-- PULMONARY VEINS (to LA, oxygenated) -->
    <g>
      <!-- Upper PV -->
      <path d="M560,65 C540,70 520,85 510,105 C505,115 503,130 503,145" fill="none" stroke="url(#pvG)" stroke-width="16" stroke-linecap="round"/>
      <path d="M560,65 C540,70 520,85 510,105 C505,115 503,130 503,145" fill="none" stroke="url(#pvInnerG)" stroke-width="9" stroke-linecap="round"/>
      <path d="M555,62 C538,68 520,82 510,100" fill="none" stroke="#f0a0a0" stroke-width="1.5" opacity="0.25" stroke-linecap="round"/>
      <!-- Lower PV -->
      <path d="M575,90 C555,95 535,108 525,128 C518,142 515,150 513,158" fill="none" stroke="url(#pvG)" stroke-width="14" stroke-linecap="round"/>
      <path d="M575,90 C555,95 535,108 525,128 C518,142 515,150 513,158" fill="none" stroke="url(#pvInnerG)" stroke-width="8" stroke-linecap="round"/>
      <!-- Flow -->
      <path d="M552,70 C535,78 520,92 512,112 C507,125 505,138 505,148" stroke="#f0a0a0" stroke-width="1" opacity="0.5" stroke-dasharray="4,6" fill="none" marker-end="url(#flowArrowRed)"/>
    </g>

    <!-- AORTA (ascending + arch from LV) -->
    <g>
      <!-- Ascending aorta outer wall -->
      <path d="M430,170 C430,130 435,95 445,70 C455,48 470,38 490,35 C510,32 528,38 540,50 C548,58 552,68 552,80" fill="none" stroke="url(#aortaG)" stroke-width="26" stroke-linecap="round"/>
      <!-- Border -->
      <path d="M430,170 C430,130 435,95 445,70 C455,48 470,38 490,35 C510,32 528,38 540,50 C548,58 552,68 552,80" fill="none" stroke="#6a2018" stroke-width="28" stroke-linecap="round" opacity="0.12"/>
      <!-- Inner lumen -->
      <path d="M430,170 C430,130 435,95 445,70 C455,48 470,38 490,35 C510,32 528,38 540,50 C548,58 552,68 552,80" fill="none" stroke="url(#aortaInnerG)" stroke-width="16" stroke-linecap="round"/>
      <!-- Highlight -->
      <path d="M433,160 C434,125 440,95 448,72 C458,52 472,42 490,39" fill="none" stroke="#f0a090" stroke-width="2.5" opacity="0.3" stroke-linecap="round"/>
      <!-- Flow -->
      <path d="M435,165 C436,130 442,98 450,74 C460,52 475,42 495,40 C512,38 528,44 538,54" stroke="#f0a0a0" stroke-width="1" opacity="0.5" stroke-dasharray="4,6" fill="none" marker-end="url(#flowArrowRed)"/>
      <!-- Arch branches hint -->
      <path d="M478,36 L475,22" fill="none" stroke="url(#aortaG)" stroke-width="8" stroke-linecap="round" opacity="0.6"/>
      <path d="M495,34 L496,18" fill="none" stroke="url(#aortaG)" stroke-width="7" stroke-linecap="round" opacity="0.6"/>
      <path d="M512,36 L516,22" fill="none" stroke="url(#aortaG)" stroke-width="6" stroke-linecap="round" opacity="0.6"/>
    </g>
  </g>

  <!-- ==================== HEART BODY ==================== -->
  <g filter="url(#heartShadow)">

    <!-- Pericardium (outer membrane) -->
    <path d="M175,145 C175,135 195,110 260,110 C310,110 340,125 375,125 C410,125 440,110 490,110 C555,110 575,135 575,145 L580,260 C582,320 570,380 540,420 C500,475 430,500 375,505 C320,500 250,475 210,420 C180,380 168,320 170,260 Z" fill="url(#pericardiumG)" stroke="#b89878" stroke-width="1" stroke-dasharray="4,2" opacity="0.7"/>

    <!-- Main heart muscle (myocardium) - anatomical shape -->
    <path d="M185,150 C185,138 205,118 265,118 C312,118 342,132 375,132 C408,132 438,118 485,118 C545,118 565,138 565,150 L570,258 C572,315 560,370 533,408 C495,460 425,488 375,492 C325,488 255,460 217,408 C190,370 178,315 180,258 Z" fill="url(#myocardiumG)" stroke="#6a2a22" stroke-width="1.8"/>
    <!-- Muscle fiber overlay -->
    <path d="M185,150 C185,138 205,118 265,118 C312,118 342,132 375,132 C408,132 438,118 485,118 C545,118 565,138 565,150 L570,258 C572,315 560,370 533,408 C495,460 425,488 375,492 C325,488 255,460 217,408 C190,370 178,315 180,258 Z" fill="url(#muscleFiber)"/>

    <!-- Septum (interventricular + interatrial) -->
    <path d="M370,132 L370,195" stroke="#7a3530" stroke-width="18" stroke-linecap="round"/>
    <path d="M370,132 L370,195" fill="url(#muscleFiberL)" stroke="none" stroke-width="18"/>
    <!-- Interventricular septum (thicker) -->
    <path d="M370,230 C372,290 373,360 375,440 C375,455 375,470 375,480" stroke="#7a3530" stroke-width="24" stroke-linecap="round"/>
    <path d="M370,230 L375,480" fill="url(#muscleFiberL)" stroke="none" stroke-width="24"/>

    <!-- ====== CHAMBERS ====== -->

    <!-- RIGHT ATRIUM -->
    <path d="M200,155 C200,145 220,135 270,135 C320,135 348,142 360,145 L360,195 C360,205 340,215 300,218 C240,222 210,210 200,200 Z" fill="url(#raGrad)" stroke="none"/>
    <!-- RA endocardium -->
    <path d="M205,158 C205,148 222,138 270,138 C318,138 346,145 358,148 L358,192 C358,200 338,212 300,215 C242,219 214,207 205,198 Z" fill="url(#endocardium)" opacity="0.4"/>
    <!-- RA inner shadow -->
    <path d="M200,155 C200,145 220,135 270,135 C320,135 348,142 360,145 L360,195 C360,205 340,215 300,218 C240,222 210,210 200,200 Z" fill="none" stroke="#1a3050" stroke-width="3" opacity="0.15"/>

    <!-- LEFT ATRIUM -->
    <path d="M390,145 C402,142 430,135 480,135 C530,135 550,145 550,155 L550,200 C540,210 510,222 450,218 C410,215 392,205 390,195 Z" fill="url(#laGrad)" stroke="none"/>
    <path d="M392,148 C404,145 432,138 480,138 C528,138 548,148 548,158 L548,198 C538,207 508,219 450,215 C412,212 394,202 392,192 Z" fill="url(#endocardium)" opacity="0.4"/>
    <path d="M390,145 C402,142 430,135 480,135 C530,135 550,145 550,155 L550,200 C540,210 510,222 450,218 C410,215 392,205 390,195 Z" fill="none" stroke="#501010" stroke-width="3" opacity="0.15"/>

    <!-- RIGHT VENTRICLE (thinner wall) -->
    <path d="M195,240 C195,235 220,228 290,228 C340,228 355,232 360,235 L362,430 C362,445 340,465 300,470 C250,472 215,455 200,430 C188,408 185,370 185,330 Z" fill="url(#rvGrad)" stroke="none"/>
    <path d="M200,242 C200,238 222,232 290,232 C338,232 353,235 358,238 L360,426 C360,440 338,458 300,464 C252,466 220,450 206,428 C194,406 190,370 190,332 Z" fill="url(#endocardium)" opacity="0.3"/>
    <path d="M195,240 C195,235 220,228 290,228 C340,228 355,232 360,235 L362,430 C362,445 340,465 300,470 C250,472 215,455 200,430 C188,408 185,370 185,330 Z" fill="none" stroke="#1a3050" stroke-width="3" opacity="0.12"/>

    <!-- LEFT VENTRICLE (thicker wall - note wider myocardium) -->
    <path d="M390,235 C395,232 410,228 460,228 C510,228 535,232 555,240 L555,330 C555,370 548,408 535,430 C520,455 490,472 450,470 C400,465 388,445 388,430 Z" fill="url(#lvGrad)" stroke="none"/>
    <path d="M393,238 C398,235 413,232 460,232 C508,232 532,235 550,242 L550,328 C550,368 544,404 532,426 C518,450 488,466 450,464 C404,460 392,442 392,428 Z" fill="url(#endocardium)" opacity="0.3"/>
    <path d="M390,235 C395,232 410,228 460,228 C510,228 535,232 555,240 L555,330 C555,370 548,408 535,430 C520,455 490,472 450,470 C400,465 388,445 388,430 Z" fill="none" stroke="#501010" stroke-width="3" opacity="0.12"/>

    <!-- ====== VALVES ====== -->

    <!-- Tricuspid Valve (between RA and RV) -->
    <g>
      <!-- Annulus -->
      <ellipse cx="290" cy="222" rx="55" ry="6" fill="none" stroke="#b09070" stroke-width="2.5" opacity="0.6"/>
      <!-- Leaflet 1 -->
      <path d="M240,220 C250,232 270,240 290,238 C290,238 270,228 260,222" fill="url(#valveG)" stroke="url(#valveEdgeG)" stroke-width="1.2"/>
      <!-- Leaflet 2 -->
      <path d="M290,238 C310,240 330,232 340,220 C330,222 310,228 290,238" fill="url(#valveG)" stroke="url(#valveEdgeG)" stroke-width="1.2"/>
      <!-- Leaflet 3 (septal) -->
      <path d="M260,222 C275,218 305,218 340,220" fill="none" stroke="url(#valveEdgeG)" stroke-width="1.5"/>
      <!-- Chordae tendineae -->
      <line x1="265" y1="235" x2="258" y2="280" stroke="#c8a888" stroke-width="0.6" opacity="0.5"/>
      <line x1="290" y1="238" x2="290" y2="285" stroke="#c8a888" stroke-width="0.6" opacity="0.5"/>
      <line x1="315" y1="235" x2="322" y2="280" stroke="#c8a888" stroke-width="0.6" opacity="0.5"/>
    </g>

    <!-- Mitral (Bicuspid) Valve (between LA and LV) -->
    <g>
      <ellipse cx="460" cy="222" rx="50" ry="6" fill="none" stroke="#b09070" stroke-width="2.5" opacity="0.6"/>
      <!-- Anterior leaflet -->
      <path d="M415,220 C425,236 445,244 465,240 C465,240 445,230 430,222" fill="url(#valveG)" stroke="url(#valveEdgeG)" stroke-width="1.2"/>
      <!-- Posterior leaflet -->
      <path d="M465,240 C485,244 495,236 505,220 C492,226 475,234 465,240" fill="url(#valveG)" stroke="url(#valveEdgeG)" stroke-width="1.2"/>
      <!-- Chordae -->
      <line x1="440" y1="238" x2="432" y2="285" stroke="#c8a888" stroke-width="0.6" opacity="0.5"/>
      <line x1="465" y1="240" x2="465" y2="290" stroke="#c8a888" stroke-width="0.6" opacity="0.5"/>
      <line x1="488" y1="236" x2="496" y2="282" stroke="#c8a888" stroke-width="0.6" opacity="0.5"/>
    </g>

    <!-- Pulmonary Valve (RV outflow) -->
    <g>
      <ellipse cx="310" cy="168" rx="22" ry="5" fill="none" stroke="#b09070" stroke-width="2" opacity="0.5" transform="rotate(-10,310,168)"/>
      <!-- 3 semilunar cusps -->
      <path d="M290,170 C295,158 305,154 310,155 C310,155 300,162 295,168" fill="url(#valveG)" stroke="url(#valveEdgeG)" stroke-width="1"/>
      <path d="M310,155 C315,154 325,158 330,170 C325,165 318,160 310,155" fill="url(#valveG)" stroke="url(#valveEdgeG)" stroke-width="1"/>
      <path d="M295,168 C302,172 318,172 330,170" fill="none" stroke="url(#valveEdgeG)" stroke-width="1.2"/>
    </g>

    <!-- Aortic Valve (LV outflow) -->
    <g>
      <ellipse cx="430" cy="175" rx="22" ry="5" fill="none" stroke="#b09070" stroke-width="2" opacity="0.5" transform="rotate(8,430,175)"/>
      <!-- 3 semilunar cusps -->
      <path d="M410,177 C415,164 425,160 430,161 C430,161 420,168 415,174" fill="url(#valveG)" stroke="url(#valveEdgeG)" stroke-width="1"/>
      <path d="M430,161 C435,160 445,164 450,177 C445,171 438,166 430,161" fill="url(#valveG)" stroke="url(#valveEdgeG)" stroke-width="1"/>
      <path d="M415,174 C422,179 438,179 450,177" fill="none" stroke="url(#valveEdgeG)" stroke-width="1.2"/>
    </g>

    <!-- ====== CORONARY ARTERIES on heart surface ====== -->
    <g opacity="0.55">
      <!-- Left anterior descending -->
      <path d="M370,140 C368,180 365,240 368,320 C370,380 372,430 375,470" fill="none" stroke="url(#coronaryG)" stroke-width="2.2" stroke-linecap="round"/>
      <!-- Left circumflex -->
      <path d="M370,140 C400,145 440,155 470,170 C500,188 520,210 535,240" fill="none" stroke="url(#coronaryG)" stroke-width="2" stroke-linecap="round"/>
      <!-- Right coronary -->
      <path d="M375,135 C340,140 280,148 240,170 C210,190 195,220 190,260" fill="none" stroke="url(#coronaryG)" stroke-width="2" stroke-linecap="round"/>
      <!-- Small branches -->
      <path d="M365,250 C345,260 320,275 300,300" fill="none" stroke="url(#coronaryG)" stroke-width="1.2" stroke-linecap="round"/>
      <path d="M380,280 C400,290 425,305 440,325" fill="none" stroke="url(#coronaryG)" stroke-width="1.2" stroke-linecap="round"/>
    </g>

    <!-- ====== CONDUCTION SYSTEM ====== -->
    <!-- SA Node -->
    <circle cx="225" cy="138" r="5" fill="#ffd700" stroke="#c8a000" stroke-width="1.2" opacity="0.9"/>
    <circle cx="225" cy="138" r="8" fill="none" stroke="#ffd700" stroke-width="0.8" opacity="0.4"/>
    <!-- AV Node -->
    <circle cx="365" cy="205" r="4.5" fill="#ffa500" stroke="#c87800" stroke-width="1.2" opacity="0.9"/>
    <circle cx="365" cy="205" r="7.5" fill="none" stroke="#ffa500" stroke-width="0.8" opacity="0.4"/>
    <!-- Bundle of His hint -->
    <path d="M365,210 L368,240 L365,260" fill="none" stroke="#ffa500" stroke-width="1" stroke-dasharray="2,3" opacity="0.4"/>

    <!-- ====== BLOOD FLOW ARROWS inside chambers ====== -->
    <g opacity="0.5">
      <!-- RA flow down -->
      <path d="M280,150 C280,165 280,185 280,205" stroke="#a0d0f0" stroke-width="1.5" fill="none" marker-end="url(#flowArrowBlue)" stroke-dasharray="3,4"/>
      <!-- RV flow up to PA -->
      <path d="M300,260 C305,250 308,235 310,210 C312,190 312,175 312,160" stroke="#a0d0f0" stroke-width="1.5" fill="none" marker-end="url(#flowArrowBlue)" stroke-dasharray="3,4"/>
      <!-- LA flow down -->
      <path d="M460,155 C460,170 460,190 460,208" stroke="#f0a0a0" stroke-width="1.5" fill="none" marker-end="url(#flowArrowRed)" stroke-dasharray="3,4"/>
      <!-- LV flow up to aorta -->
      <path d="M450,260 C445,245 440,225 435,200 C432,190 430,180 430,172" stroke="#f0a0a0" stroke-width="1.5" fill="none" marker-end="url(#flowArrowRed)" stroke-dasharray="3,4"/>
    </g>
  </g>

  <!-- ==================== LABELS ==================== -->
  <g font-size="10" fill="#1a1a1a">
    <!-- Vessel labels -->
    <g font-weight="bold" font-size="9.5">
      <!-- SVC -->
      <line x1="230" y1="80" x2="155" y2="70" stroke="#3a6b9f" stroke-width="0.8" opacity="0.6"/>
      <text x="80" y="68" fill="#2a5580" font-size="9.5" font-weight="bold">Superior</text>
      <text x="80" y="79" fill="#2a5580" font-size="9.5" font-weight="bold">Vena Cava</text>

      <!-- IVC -->
      <line x1="230" y1="440" x2="148" y2="448" stroke="#3a6b9f" stroke-width="0.8" opacity="0.6"/>
      <text x="80" y="446" fill="#2a5580" font-size="9.5" font-weight="bold">Inferior</text>
      <text x="80" y="457" fill="#2a5580" font-size="9.5" font-weight="bold">Vena Cava</text>

      <!-- Pulmonary Artery -->
      <line x1="370" y1="70" x2="370" y2="55" stroke="#3a6b9f" stroke-width="0.8" opacity="0.6"/>
      <text x="350" y="50" fill="#2a5580" font-size="9.5" font-weight="bold" text-anchor="middle">Pulmonary</text>
      <text x="350" y="61" fill="#2a5580" font-size="9.5" font-weight="bold" text-anchor="middle">Artery</text>

      <!-- Pulmonary Veins -->
      <line x1="560" y1="78" x2="620" y2="72" stroke="#962d22" stroke-width="0.8" opacity="0.6"/>
      <text x="625" y="68" fill="#8a2218" font-size="9.5" font-weight="bold">Pulmonary</text>
      <text x="625" y="79" fill="#8a2218" font-size="9.5" font-weight="bold">Veins</text>

      <!-- Aorta -->
      <line x1="500" y1="36" x2="540" y2="25" stroke="#c0392b" stroke-width="0.8" opacity="0.6"/>
      <text x="545" y="22" fill="#8a2218" font-size="10.5" font-weight="bold">Aorta</text>
      <!-- Arch branches -->
      <text x="468" y="16" fill="#8a2218" font-size="7" opacity="0.6">brachiocephalic</text>
    </g>

    <!-- Chamber labels -->
    <g filter="url(#textShadow)">
      <text x="275" y="178" text-anchor="middle" font-size="12" font-weight="bold" fill="#fff">Right</text>
      <text x="275" y="191" text-anchor="middle" font-size="12" font-weight="bold" fill="#fff">Atrium</text>

      <text x="475" y="178" text-anchor="middle" font-size="12" font-weight="bold" fill="#fff">Left</text>
      <text x="475" y="191" text-anchor="middle" font-size="12" font-weight="bold" fill="#fff">Atrium</text>

      <text x="280" y="340" text-anchor="middle" font-size="12" font-weight="bold" fill="#fff">Right</text>
      <text x="280" y="353" text-anchor="middle" font-size="12" font-weight="bold" fill="#fff">Ventricle</text>

      <text x="468" y="340" text-anchor="middle" font-size="12" font-weight="bold" fill="#fff">Left</text>
      <text x="468" y="353" text-anchor="middle" font-size="12" font-weight="bold" fill="#fff">Ventricle</text>
    </g>

    <!-- Valve labels -->
    <g font-size="8" fill="#5a4030" font-style="italic">
      <line x1="290" y1="225" x2="168" y2="238" stroke="#8a7060" stroke-width="0.5" opacity="0.5"/>
      <text x="108" y="237" font-size="8.5">Tricuspid Valve</text>

      <line x1="460" y1="226" x2="600" y2="240" stroke="#8a7060" stroke-width="0.5" opacity="0.5"/>
      <text x="604" y="239" font-size="8.5">Mitral (Bicuspid) Valve</text>

      <line x1="310" y1="162" x2="148" y2="130" stroke="#8a7060" stroke-width="0.5" opacity="0.5"/>
      <text x="88" y="128" font-size="8.5">Pulmonary Valve</text>

      <line x1="430" y1="170" x2="600" y2="148" stroke="#8a7060" stroke-width="0.5" opacity="0.5"/>
      <text x="604" y="147" font-size="8.5">Aortic Valve</text>
    </g>

    <!-- Conduction labels -->
    <g font-size="8">
      <line x1="225" y1="133" x2="155" y2="108" stroke="#c8a000" stroke-width="0.5" opacity="0.6"/>
      <text x="108" y="105" fill="#a08000" font-weight="bold" font-size="8.5">SA Node</text>
      <text x="108" y="115" fill="#a08000" font-size="7">(pacemaker)</text>

      <line x1="359" y1="205" x2="335" y2="205" stroke="#c87800" stroke-width="0.5" opacity="0.6"/>
      <line x1="335" y1="205" x2="148" y2="258" stroke="#c87800" stroke-width="0.5" opacity="0.6"/>
      <text x="108" y="256" fill="#b07000" font-weight="bold" font-size="8.5">AV Node</text>
      <text x="108" y="266" fill="#b07000" font-size="7">(delay 0.1s)</text>
    </g>

    <!-- Wall thickness label -->
    <g font-size="7" fill="#5a3028" opacity="0.7">
      <text x="555" y="310" font-style="italic">LV wall:</text>
      <text x="555" y="320" font-style="italic">~1.5 cm</text>
      <text x="185" y="310" font-style="italic" text-anchor="end">RV wall:</text>
      <text x="185" y="320" font-style="italic" text-anchor="end">~0.5 cm</text>
    </g>

    <!-- Septum labels -->
    <text x="375" y="165" text-anchor="middle" font-size="7" fill="#e0d0c0" font-style="italic" opacity="0.8">interatrial</text>
    <text x="375" y="175" text-anchor="middle" font-size="7" fill="#e0d0c0" font-style="italic" opacity="0.8">septum</text>
    <text x="375" y="300" text-anchor="middle" font-size="7" fill="#e0d0c0" font-style="italic" transform="rotate(-90,375,300)" opacity="0.7">interventricular septum</text>

    <!-- Coronary label -->
    <text x="215" y="180" font-size="7" fill="#d06050" opacity="0.6" font-style="italic">RCA</text>
    <text x="500" y="198" font-size="7" fill="#d06050" opacity="0.6" font-style="italic">LCx</text>
    <text x="352" y="290" font-size="7" fill="#d06050" opacity="0.6" font-style="italic">LAD</text>
  </g>

  <!-- ==================== LEGEND / KEY ==================== -->
  <!-- Color key -->
  <g transform="translate(15,502)">
    <rect x="0" y="0" width="160" height="50" rx="4" fill="#fff" fill-opacity="0.85" stroke="#b0a090" stroke-width="0.8"/>
    <text x="80" y="14" text-anchor="middle" font-size="8" font-weight="bold" fill="#3a2820">COLOR KEY</text>
    <rect x="10" y="20" width="14" height="10" rx="2" fill="#3a6b9f"/>
    <text x="28" y="28" font-size="7.5" fill="#333">Deoxygenated blood</text>
    <rect x="10" y="34" width="14" height="10" rx="2" fill="#c0392b"/>
    <text x="28" y="42" font-size="7.5" fill="#333">Oxygenated blood</text>
  </g>

  <!-- Blood flow pathway box -->
  <g transform="translate(15,560)">
    <rect x="0" y="0" width="720" height="52" rx="5" fill="#fff" fill-opacity="0.9" stroke="#8a7060" stroke-width="1"/>
    <text x="360" y="14" text-anchor="middle" font-size="9" font-weight="bold" fill="#2c1810" letter-spacing="0.5">BLOOD FLOW PATHWAY</text>
    <line x1="20" y1="18" x2="700" y2="18" stroke="#c0b0a0" stroke-width="0.5"/>

    <!-- Deoxy path -->
    <g font-size="7.5" fill="#2a5580">
      <circle cx="18" cy="30" r="4" fill="#3a6b9f"/>
      <text x="26" y="32" font-weight="bold">Systemic veins</text>
      <text x="100" y="32" fill="#666"> &#8594; </text>
      <text x="115" y="32" font-weight="bold">SVC / IVC</text>
      <text x="162" y="32" fill="#666"> &#8594; </text>
      <text x="177" y="32" font-weight="bold">RA</text>
      <text x="192" y="32" fill="#666"> &#8594; </text>
      <text x="207" y="32" font-style="italic" fill="#8a7060">tricuspid v.</text>
      <text x="265" y="32" fill="#666"> &#8594; </text>
      <text x="280" y="32" font-weight="bold">RV</text>
      <text x="295" y="32" fill="#666"> &#8594; </text>
      <text x="310" y="32" font-style="italic" fill="#8a7060">pulmonary v.</text>
      <text x="378" y="32" fill="#666"> &#8594; </text>
      <text x="393" y="32" font-weight="bold">Pulmonary Artery</text>
      <text x="483" y="32" fill="#666"> &#8594; Lungs (gas exchange)</text>
    </g>
    <!-- Oxy path -->
    <g font-size="7.5" fill="#8a2218">
      <circle cx="18" cy="44" r="4" fill="#c0392b"/>
      <text x="26" y="46" font-weight="bold">Pulmonary Veins</text>
      <text x="115" y="46" fill="#666"> &#8594; </text>
      <text x="130" y="46" font-weight="bold">LA</text>
      <text x="145" y="46" fill="#666"> &#8594; </text>
      <text x="160" y="46" font-style="italic" fill="#8a7060">mitral v.</text>
      <text x="205" y="46" fill="#666"> &#8594; </text>
      <text x="220" y="46" font-weight="bold">LV</text>
      <text x="235" y="46" fill="#666"> &#8594; </text>
      <text x="250" y="46" font-style="italic" fill="#8a7060">aortic v.</text>
      <text x="300" y="46" fill="#666"> &#8594; </text>
      <text x="315" y="46" font-weight="bold">Aorta</text>
      <text x="350" y="46" fill="#666"> &#8594; Systemic circulation</text>
    </g>
  </g>

  <!-- Key Exam Facts -->
  <g transform="translate(15,620)">
    <rect x="0" y="0" width="720" height="52" rx="5" fill="#faf5ef" fill-opacity="0.95" stroke="#c0a888" stroke-width="1"/>
    <text x="360" y="14" text-anchor="middle" font-size="9" font-weight="bold" fill="#5a3020" letter-spacing="0.5">KEY EXAM FACTS</text>
    <line x1="20" y1="18" x2="700" y2="18" stroke="#d0c0a8" stroke-width="0.5"/>
    <g font-size="7.5" fill="#3a2820">
      <text x="18" y="30">&#8226; SA node = primary pacemaker (60-100 bpm) &#160;&#160;&#8226; AV node delay ~0.1s allows atrial contraction before ventricular</text>
      <text x="18" y="42">&#8226; LV wall 3x thicker than RV (systemic vs pulmonary pressure) &#160;&#160;&#8226; Mitral valve = bicuspid (2 leaflets); all others = 3 leaflets</text>
      <text x="18" y="54" fill="#5a3820" font-style="italic">&#8226; LAD = "widow-maker" supplies anterior LV wall &#160;&#160;&#8226; Right-dominant circulation in ~85% of people (PDA from RCA)</text>
    </g>
  </g>

  <!-- Anatomical orientation marker -->
  <g transform="translate(693,115)" font-size="7" fill="#8a7060" opacity="0.6">
    <text x="0" y="0" text-anchor="middle" font-weight="bold">ANTERIOR</text>
    <text x="0" y="10" text-anchor="middle" font-size="6.5">VIEW</text>
    <text x="-20" y="30" font-size="6">R</text>
    <text x="18" y="30" font-size="6">L</text>
    <line x1="-14" y1="27" x2="14" y2="27" stroke="#8a7060" stroke-width="0.6"/>
    <polygon points="-14,27 -10,25 -10,29" fill="#8a7060"/>
    <polygon points="14,27 10,25 10,29" fill="#8a7060"/>
  </g>
</svg>