<svg xmlns="http://www.w3.org/2000/svg" viewBox="0 0 740 600" font-family="'Segoe UI', Arial, sans-serif" font-size="10">
  <title>Nephron — Functional Unit of the Kidney (Medical Textbook Illustration)</title>
  <defs>
    <!-- Cortex/Medulla background gradients -->
    <linearGradient id="cortexBg" x1="0" y1="0" x2="0" y2="1">
      <stop offset="0%" stop-color="#fce4d6" stop-opacity="0.5"/>
      <stop offset="100%" stop-color="#f5d0b8" stop-opacity="0.6"/>
    </linearGradient>
    <linearGradient id="medullaBg" x1="0" y1="0" x2="0" y2="1">
      <stop offset="0%" stop-color="#f5d0b8" stop-opacity="0.5"/>
      <stop offset="50%" stop-color="#e8b898" stop-opacity="0.6"/>
      <stop offset="100%" stop-color="#d4966e" stop-opacity="0.7"/>
    </linearGradient>
    <!-- Osmolarity gradient overlay for medulla -->
    <linearGradient id="osmGrad" x1="0" y1="0" x2="0" y2="1">
      <stop offset="0%" stop-color="#fff8e0" stop-opacity="0.0"/>
      <stop offset="100%" stop-color="#c87020" stop-opacity="0.18"/>
    </linearGradient>
    <!-- Glomerulus capillary gradient -->
    <radialGradient id="glomCapG" cx="45%" cy="38%" r="55%">
      <stop offset="0%" stop-color="#f08080"/>
      <stop offset="60%" stop-color="#cc4444"/>
      <stop offset="100%" stop-color="#992222"/>
    </radialGradient>
    <!-- Bowman's capsule parietal layer -->
    <radialGradient id="bowParietalG" cx="50%" cy="42%" r="58%">
      <stop offset="0%" stop-color="#d8ecf8"/>
      <stop offset="100%" stop-color="#90b8d8"/>
    </radialGradient>
    <!-- Bowman's capsule visceral layer -->
    <radialGradient id="bowVisceralG" cx="50%" cy="42%" r="55%">
      <stop offset="0%" stop-color="#c8e0f4"/>
      <stop offset="100%" stop-color="#80a8c8"/>
    </radialGradient>
    <!-- PCT tubule gradients (gold/amber) -->
    <linearGradient id="pctWallG" x1="0" y1="0" x2="0" y2="1">
      <stop offset="0%" stop-color="#f0b840"/>
      <stop offset="50%" stop-color="#d89820"/>
      <stop offset="100%" stop-color="#b87810"/>
    </linearGradient>
    <linearGradient id="pctLumenG" x1="0" y1="0" x2="0" y2="1">
      <stop offset="0%" stop-color="#fef0c8"/>
      <stop offset="100%" stop-color="#f8e0a0"/>
    </linearGradient>
    <!-- Loop of Henle gradients (green) -->
    <linearGradient id="loopDescWallG" x1="0" y1="0" x2="1" y2="0">
      <stop offset="0%" stop-color="#60a860"/>
      <stop offset="100%" stop-color="#408840"/>
    </linearGradient>
    <linearGradient id="loopDescLumenG" x1="0" y1="0" x2="1" y2="0">
      <stop offset="0%" stop-color="#c8f0c8"/>
      <stop offset="100%" stop-color="#a8e0a8"/>
    </linearGradient>
    <linearGradient id="loopAscWallG" x1="0" y1="0" x2="1" y2="0">
      <stop offset="0%" stop-color="#388838"/>
      <stop offset="100%" stop-color="#50a050"/>
    </linearGradient>
    <linearGradient id="loopAscLumenG" x1="0" y1="0" x2="1" y2="0">
      <stop offset="0%" stop-color="#a8e0a8"/>
      <stop offset="100%" stop-color="#c8f0c8"/>
    </linearGradient>
    <!-- DCT gradients (purple) -->
    <linearGradient id="dctWallG" x1="0" y1="0" x2="0" y2="1">
      <stop offset="0%" stop-color="#b080d0"/>
      <stop offset="50%" stop-color="#9060b0"/>
      <stop offset="100%" stop-color="#704890"/>
    </linearGradient>
    <linearGradient id="dctLumenG" x1="0" y1="0" x2="0" y2="1">
      <stop offset="0%" stop-color="#e8d0f8"/>
      <stop offset="100%" stop-color="#d0b8e8"/>
    </linearGradient>
    <!-- Collecting duct gradients (blue) -->
    <linearGradient id="cdWallG" x1="0" y1="0" x2="1" y2="0">
      <stop offset="0%" stop-color="#5080c0"/>
      <stop offset="50%" stop-color="#3868a8"/>
      <stop offset="100%" stop-color="#285090"/>
    </linearGradient>
    <linearGradient id="cdLumenG" x1="0" y1="0" x2="1" y2="0">
      <stop offset="0%" stop-color="#c8d8f0"/>
      <stop offset="100%" stop-color="#d0e0f8"/>
    </linearGradient>
    <!-- Arteriole gradients -->
    <linearGradient id="affArtG" x1="0" y1="0" x2="1" y2="0">
      <stop offset="0%" stop-color="#e04040"/>
      <stop offset="100%" stop-color="#c02020"/>
    </linearGradient>
    <linearGradient id="effArtG" x1="0" y1="0" x2="1" y2="0">
      <stop offset="0%" stop-color="#c83030"/>
      <stop offset="100%" stop-color="#a01818"/>
    </linearGradient>
    <!-- Peritubular capillary -->
    <linearGradient id="periCapG" x1="0" y1="0" x2="0" y2="1">
      <stop offset="0%" stop-color="#f08888"/>
      <stop offset="100%" stop-color="#d06060"/>
    </linearGradient>
    <!-- Vasa recta -->
    <linearGradient id="vasaRectaDescG" x1="0" y1="0" x2="0" y2="1">
      <stop offset="0%" stop-color="#e05050"/>
      <stop offset="100%" stop-color="#802020"/>
    </linearGradient>
    <linearGradient id="vasaRectaAscG" x1="0" y1="0" x2="0" y2="1">
      <stop offset="0%" stop-color="#4040c0"/>
      <stop offset="100%" stop-color="#6060e0"/>
    </linearGradient>
    <!-- Shadow filter -->
    <filter id="shadow" x="-5%" y="-5%" width="115%" height="115%">
      <feDropShadow dx="1.5" dy="2" stdDeviation="2.5" flood-color="#00000040"/>
    </filter>
    <filter id="softShadow" x="-8%" y="-8%" width="120%" height="120%">
      <feDropShadow dx="1" dy="1.5" stdDeviation="1.8" flood-color="#00000030"/>
    </filter>
    <filter id="boxShadow" x="-3%" y="-3%" width="108%" height="110%">
      <feDropShadow dx="2" dy="3" stdDeviation="3" flood-color="#00000035"/>
    </filter>
    <!-- Tissue texture pattern -->
    <pattern id="tissueTexture" width="6" height="6" patternUnits="userSpaceOnUse">
      <circle cx="1" cy="1" r="0.4" fill="#00000008"/>
      <circle cx="4" cy="4" r="0.3" fill="#00000006"/>
      <circle cx="2.5" cy="5" r="0.2" fill="#00000005"/>
    </pattern>
    <!-- Brush border pattern for PCT -->
    <pattern id="brushBorder" width="2.2" height="4" patternUnits="userSpaceOnUse">
      <line x1="1.1" y1="0" x2="1.1" y2="3.5" stroke="#c88010" stroke-width="0.7" stroke-linecap="round"/>
    </pattern>
    <!-- Molecule markers -->
    <marker id="arrowBlue" markerWidth="6" markerHeight="4" refX="5" refY="2" orient="auto">
      <path d="M0,0 L6,2 L0,4 Z" fill="#2080d0"/>
    </marker>
    <marker id="arrowOrange" markerWidth="6" markerHeight="4" refX="5" refY="2" orient="auto">
      <path d="M0,0 L6,2 L0,4 Z" fill="#e08020"/>
    </marker>
    <marker id="arrowGreen" markerWidth="6" markerHeight="4" refX="5" refY="2" orient="auto">
      <path d="M0,0 L6,2 L0,4 Z" fill="#30a040"/>
    </marker>
  </defs>

  <!-- ====== BACKGROUND: CORTEX & MEDULLA ZONES ====== -->
  <!-- Cortex zone -->
  <rect x="20" y="10" width="480" height="215" rx="6" fill="url(#cortexBg)"/>
  <rect x="20" y="10" width="480" height="215" rx="6" fill="url(#tissueTexture)"/>
  <!-- Medulla zone -->
  <rect x="20" y="225" width="480" height="365" rx="6" fill="url(#medullaBg)"/>
  <rect x="20" y="225" width="480" height="365" rx="6" fill="url(#tissueTexture)"/>
  <!-- Osmolarity gradient overlay on medulla -->
  <rect x="20" y="225" width="480" height="365" rx="6" fill="url(#osmGrad)"/>

  <!-- Cortex/Medulla boundary -->
  <line x1="20" y1="225" x2="500" y2="225" stroke="#a07050" stroke-width="1.8" stroke-dasharray="8,4" opacity="0.7"/>

  <!-- Zone labels -->
  <text x="35" y="32" font-size="13" font-weight="bold" fill="#8b4513" letter-spacing="2">CORTEX</text>
  <text x="35" y="248" font-size="13" font-weight="bold" fill="#6b3410" letter-spacing="2">MEDULLA</text>
  <!-- Osmolarity scale on far left -->
  <text x="25" y="270" font-size="7.5" fill="#805030" opacity="0.8">300 mOsm/kg</text>
  <text x="25" y="420" font-size="7.5" fill="#805030" opacity="0.8">600 mOsm/kg</text>
  <text x="25" y="575" font-size="7.5" fill="#805030" opacity="0.8">1200 mOsm/kg</text>
  <line x1="22" y1="258" x2="22" y2="585" stroke="#805030" stroke-width="0.8" opacity="0.5" marker-end="url(#arrowOrange)"/>

  <!-- ====== AFFERENT ARTERIOLE ====== -->
  <g filter="url(#softShadow)">
    <path d="M 60,100 Q 80,95 105,98 Q 125,100 140,105" stroke="url(#affArtG)" stroke-width="7" fill="none" stroke-linecap="round"/>
    <path d="M 60,100 Q 80,95 105,98 Q 125,100 140,105" stroke="#f8b0b0" stroke-width="2.5" fill="none" stroke-linecap="round" opacity="0.4"/>
  </g>
  <text x="58" y="88" font-size="8.5" font-weight="bold" fill="#c02020">Afferent arteriole</text>

  <!-- ====== BOWMAN'S CAPSULE (double-walled cup shape) ====== -->
  <g filter="url(#shadow)">
    <!-- Parietal layer (outer wall) -->
    <path d="M 140,65 Q 140,40 185,35 Q 230,30 250,45 Q 270,60 270,95 Q 270,140 250,155 Q 230,170 185,172 Q 140,170 140,145 Z"
          fill="url(#bowParietalG)" stroke="#6090b0" stroke-width="1.8" opacity="0.9"/>
    <!-- Capsular space (visible gap) -->
    <path d="M 152,72 Q 152,52 185,48 Q 220,44 238,55 Q 256,66 256,95 Q 256,130 238,140 Q 220,150 185,152 Q 152,150 152,135 Z"
          fill="#e0f0ff" stroke="none" opacity="0.6"/>
    <!-- Visceral layer (inner wall touching glomerulus) -->
    <path d="M 158,78 Q 158,60 185,56 Q 214,52 230,62 Q 248,72 248,95 Q 248,122 230,132 Q 214,140 185,142 Q 158,140 158,125 Z"
          fill="url(#bowVisceralG)" stroke="#5888a8" stroke-width="1" opacity="0.8"/>
    <!-- Podocyte foot processes on visceral layer -->
    <g stroke="#4878a0" stroke-width="0.6" fill="none" opacity="0.7">
      <path d="M160,82 l-3,-2 m3,2 l-2,3"/>
      <path d="M162,90 l-4,-1 m4,1 l-3,2"/>
      <path d="M160,100 l-4,0 m4,0 l-3,3"/>
      <path d="M160,110 l-4,1 m4,-1 l-3,2"/>
      <path d="M162,120 l-3,2 m3,-2 l-2,3"/>
      <path d="M168,135 l-2,3 m2,-3 l-3,2"/>
      <path d="M180,140 l0,4 m0,-4 l-2,3"/>
      <path d="M195,142 l1,3 m-1,-3 l2,3"/>
      <path d="M210,138 l2,3 m-2,-3 l3,2"/>
      <path d="M224,130 l3,2 m-3,-2 l3,1"/>
      <path d="M235,118 l4,0 m-4,0 l3,2"/>
      <path d="M240,105 l4,-1 m-4,1 l4,1"/>
      <path d="M238,90 l4,-2 m-4,2 l3,-1"/>
      <path d="M234,78 l3,-3 m-3,3 l4,-1"/>
      <path d="M225,68 l2,-4 m-2,4 l3,-2"/>
      <path d="M210,60 l1,-4 m-1,4 l2,-3"/>
      <path d="M195,56 l0,-3 m0,3 l-1,-3"/>
      <path d="M178,60 l-2,-4 m2,4 l-3,-2"/>
      <path d="M168,70 l-3,-3 m3,3 l-4,-1"/>
    </g>
  </g>

  <!-- ====== GLOMERULUS (intertwined capillary loops) ====== -->
  <g filter="url(#softShadow)">
    <!-- Multiple capillary loops -->
    <ellipse cx="190" cy="82" rx="18" ry="10" fill="url(#glomCapG)" stroke="#992222" stroke-width="0.8" opacity="0.9"/>
    <ellipse cx="178" cy="95" rx="14" ry="12" fill="url(#glomCapG)" stroke="#992222" stroke-width="0.8" opacity="0.85" transform="rotate(-15,178,95)"/>
    <ellipse cx="200" cy="95" rx="15" ry="11" fill="url(#glomCapG)" stroke="#992222" stroke-width="0.8" opacity="0.85" transform="rotate(10,200,95)"/>
    <ellipse cx="185" cy="108" rx="16" ry="10" fill="url(#glomCapG)" stroke="#992222" stroke-width="0.8" opacity="0.9" transform="rotate(-5,185,108)"/>
    <ellipse cx="200" cy="112" rx="13" ry="9" fill="url(#glomCapG)" stroke="#992222" stroke-width="0.8" opacity="0.85"/>
    <ellipse cx="190" cy="122" rx="17" ry="9" fill="url(#glomCapG)" stroke="#992222" stroke-width="0.8" opacity="0.88"/>
    <!-- Highlight reflections on capillaries -->
    <ellipse cx="186" cy="78" rx="8" ry="4" fill="#ffffff" opacity="0.25"/>
    <ellipse cx="196" cy="91" rx="6" ry="3" fill="#ffffff" opacity="0.2"/>
    <ellipse cx="183" cy="104" rx="7" ry="3" fill="#ffffff" opacity="0.18"/>
    <ellipse cx="192" cy="118" rx="7" ry="3" fill="#ffffff" opacity="0.2"/>
    <!-- Mesangial cells between loops -->
    <circle cx="188" cy="90" r="2.5" fill="#e8c0c0" stroke="#b08080" stroke-width="0.5" opacity="0.6"/>
    <circle cx="195" cy="102" r="2" fill="#e8c0c0" stroke="#b08080" stroke-width="0.5" opacity="0.6"/>
    <circle cx="183" cy="115" r="2.2" fill="#e8c0c0" stroke="#b08080" stroke-width="0.5" opacity="0.6"/>
  </g>

  <!-- Labels for Bowman's and Glomerulus -->
  <line x1="195" y1="35" x2="195" y2="22" stroke="#406080" stroke-width="0.7"/>
  <text x="150" y="18" font-size="8.5" font-weight="bold" fill="#406080">Bowman's capsule</text>
  <text x="155" y="165" font-size="7" fill="#5888a8" font-style="italic">Capsular space</text>
  <line x1="250" y1="95" x2="278" y2="80" stroke="#992222" stroke-width="0.6"/>
  <text x="280" y="78" font-size="8" font-weight="bold" fill="#992222">Glomerulus</text>
  <text x="280" y="87" font-size="6.5" fill="#aa4444" font-style="italic">(capillary tuft)</text>

  <!-- Podocyte label -->
  <line x1="246" y1="110" x2="270" y2="120" stroke="#4878a0" stroke-width="0.5"/>
  <text x="272" y="122" font-size="6.5" fill="#4878a0">Podocytes</text>

  <!-- ====== EFFERENT ARTERIOLE ====== -->
  <g filter="url(#softShadow)">
    <path d="M 250,130 Q 270,140 290,138 Q 310,135 320,128" stroke="url(#effArtG)" stroke-width="5.5" fill="none" stroke-linecap="round"/>
    <path d="M 250,130 Q 270,140 290,138 Q 310,135 320,128" stroke="#f0a0a0" stroke-width="1.8" fill="none" stroke-linecap="round" opacity="0.35"/>
  </g>
  <text x="265" y="152" font-size="8" font-weight="bold" fill="#a01818">Efferent arteriole</text>

  <!-- ====== PERITUBULAR CAPILLARY NETWORK ====== -->
  <g opacity="0.35" stroke="url(#periCapG)" stroke-width="1.2" fill="none">
    <!-- Network around PCT -->
    <path d="M320,115 Q340,105 355,115 Q368,125 355,138"/>
    <path d="M330,108 Q350,98 370,108 Q385,120 370,132"/>
    <path d="M345,130 Q360,140 380,130 Q395,118 380,108"/>
    <path d="M355,100 Q375,92 390,102"/>
    <path d="M340,142 Q355,152 375,145"/>
    <path d="M360,150 Q380,158 395,148 Q405,138 395,125"/>
    <path d="M325,120 Q330,135 345,142"/>
    <path d="M370,110 Q390,115 400,128"/>
    <path d="M385,135 Q400,145 410,135"/>
    <!-- Network around DCT -->
    <path d="M310,160 Q330,165 345,158"/>
    <path d="M300,175 Q320,180 340,172"/>
    <path d="M285,170 Q295,180 315,178"/>
    <path d="M335,168 Q355,175 370,165"/>
    <path d="M340,155 Q355,148 370,155"/>
    <!-- Additional small branches -->
    <path d="M350,120 l8,5 l-4,8"/>
    <path d="M375,115 l6,8 l-5,6"/>
    <path d="M390,130 l5,-5 l6,3"/>
    <path d="M360,138 l-5,8 l7,4"/>
  </g>
  <text x="400" y="108" font-size="7" fill="#c06060" opacity="0.8">Peritubular</text>
  <text x="400" y="117" font-size="7" fill="#c06060" opacity="0.8">capillaries</text>

  <!-- ====== JGA (Juxtaglomerular Apparatus) ====== -->
  <g filter="url(#softShadow)">
    <!-- JGA region highlight -->
    <ellipse cx="132" cy="118" rx="18" ry="14" fill="#ffe8c0" stroke="#c09030" stroke-width="1" stroke-dasharray="3,2" opacity="0.6"/>
    <!-- Macula densa cells (thickened DCT wall) -->
    <rect x="120" y="112" width="24" height="12" rx="3" fill="#b070c0" stroke="#8050a0" stroke-width="1"/>
    <!-- Juxtaglomerular (granular) cells on afferent arteriole -->
    <circle cx="130" cy="106" r="3" fill="#e8a060" stroke="#c08040" stroke-width="0.8"/>
    <circle cx="136" cy="108" r="2.5" fill="#e8a060" stroke="#c08040" stroke-width="0.8"/>
    <!-- Extraglomerular mesangial cells -->
    <circle cx="140" cy="113" r="2" fill="#d0d080" stroke="#a0a060" stroke-width="0.5"/>
    <circle cx="138" cy="118" r="1.8" fill="#d0d080" stroke="#a0a060" stroke-width="0.5"/>
  </g>
  <!-- JGA labels -->
  <line x1="118" y1="118" x2="80" y2="135" stroke="#8050a0" stroke-width="0.6"/>
  <text x="42" y="132" font-size="7.5" font-weight="bold" fill="#8050a0">Macula densa</text>
  <text x="42" y="141" font-size="6.5" fill="#a070b0" font-style="italic">(JGA)</text>
  <line x1="130" y1="104" x2="100" y2="155" stroke="#c08040" stroke-width="0.5"/>
  <text x="55" y="157" font-size="6.5" fill="#c08040">JG cells (renin)</text>

  <!-- ====== PCT (Proximal Convoluted Tubule) ====== -->
  <!-- PCT outer wall (epithelial layer) -->
  <g filter="url(#shadow)">
    <path d="M 248,148 Q 280,140 320,140 Q 370,140 400,160 Q 430,180 410,200 Q 390,215 350,210 Q 310,205 290,195"
          stroke="url(#pctWallG)" stroke-width="14" fill="none" stroke-linecap="round" stroke-linejoin="round"/>
    <!-- PCT lumen (lighter inner) -->
    <path d="M 248,148 Q 280,140 320,140 Q 370,140 400,160 Q 430,180 410,200 Q 390,215 350,210 Q 310,205 290,195"
          stroke="url(#pctLumenG)" stroke-width="6" fill="none" stroke-linecap="round" stroke-linejoin="round"/>
    <!-- 3D highlight on top -->
    <path d="M 248,148 Q 280,140 320,140 Q 370,140 400,160 Q 430,180 410,200 Q 390,215 350,210 Q 310,205 290,195"
          stroke="#fff0d0" stroke-width="2" fill="none" stroke-linecap="round" stroke-linejoin="round" opacity="0.4"/>
  </g>

  <!-- Brush border microvilli on PCT inner wall -->
  <g stroke="#c88818" stroke-width="0.5" opacity="0.7">
    <!-- Dense microvilli projections along PCT path -->
    <line x1="260" y1="143" x2="260" y2="139"/><line x1="263" y1="142" x2="263" y2="138"/>
    <line x1="266" y1="141" x2="266" y2="137"/><line x1="269" y1="141" x2="269" y2="137"/>
    <line x1="272" y1="140" x2="272" y2="136"/><line x1="275" y1="140" x2="275" y2="136"/>
    <line x1="278" y1="139" x2="278" y2="135"/><line x1="281" y1="139" x2="281" y2="135"/>
    <line x1="284" y1="139" x2="284" y2="135"/><line x1="287" y1="138" x2="287" y2="134"/>
    <line x1="290" y1="138" x2="290" y2="134"/><line x1="293" y1="138" x2="293" y2="134"/>
    <line x1="296" y1="138" x2="296" y2="134"/><line x1="299" y1="138" x2="299" y2="134"/>
    <line x1="302" y1="138" x2="302" y2="134"/><line x1="305" y1="138" x2="305" y2="134"/>
    <line x1="308" y1="138" x2="308" y2="134"/><line x1="311" y1="138" x2="311" y2="134"/>
    <line x1="314" y1="138" x2="314" y2="134"/><line x1="317" y1="139" x2="317" y2="135"/>
    <line x1="320" y1="139" x2="320" y2="135"/><line x1="323" y1="139" x2="323" y2="135"/>
    <line x1="326" y1="140" x2="326" y2="136"/><line x1="329" y1="140" x2="329" y2="136"/>
    <line x1="332" y1="141" x2="332" y2="137"/><line x1="335" y1="141" x2="335" y2="137"/>
    <line x1="338" y1="142" x2="338" y2="138"/><line x1="341" y1="142" x2="341" y2="138"/>
    <line x1="344" y1="143" x2="344" y2="139"/><line x1="347" y1="144" x2="347" y2="140"/>
    <line x1="350" y1="145" x2="350" y2="141"/><line x1="353" y1="146" x2="353" y2="142"/>
    <line x1="356" y1="147" x2="356" y2="143"/><line x1="359" y1="148" x2="359" y2="144"/>
    <line x1="362" y1="149" x2="362" y2="145"/><line x1="365" y1="150" x2="365" y2="146"/>
    <line x1="368" y1="152" x2="368" y2="148"/><line x1="371" y1="153" x2="371" y2="149"/>
    <line x1="374" y1="155" x2="374" y2="151"/><line x1="377" y1="157" x2="377" y2="153"/>
    <line x1="380" y1="158" x2="380" y2="154"/>
    <!-- Bottom curve microvilli -->
    <line x1="405" y1="195" x2="408" y2="198"/><line x1="400" y1="200" x2="404" y2="203"/>
    <line x1="395" y1="205" x2="398" y2="208"/><line x1="390" y1="208" x2="393" y2="211"/>
    <line x1="385" y1="210" x2="387" y2="214"/><line x1="380" y1="211" x2="382" y2="215"/>
    <line x1="375" y1="212" x2="376" y2="216"/><line x1="370" y1="212" x2="371" y2="216"/>
    <line x1="365" y1="212" x2="365" y2="216"/><line x1="360" y1="211" x2="360" y2="215"/>
    <line x1="355" y1="211" x2="354" y2="215"/><line x1="350" y1="210" x2="349" y2="214"/>
    <line x1="345" y1="209" x2="343" y2="213"/><line x1="340" y1="208" x2="338" y2="212"/>
    <line x1="335" y1="207" x2="333" y2="211"/><line x1="330" y1="206" x2="327" y2="209"/>
    <line x1="325" y1="204" x2="322" y2="207"/><line x1="320" y1="203" x2="317" y2="206"/>
    <line x1="315" y1="201" x2="312" y2="204"/><line x1="310" y1="200" x2="307" y2="203"/>
    <line x1="305" y1="198" x2="302" y2="201"/><line x1="300" y1="197" x2="297" y2="200"/>
  </g>
  <!-- PCT label -->
  <text x="330" y="175" font-size="9" font-weight="bold" fill="#a07010">PCT</text>
  <text x="310" y="185" font-size="6.5" fill="#b08020" font-style="italic">brush border</text>

  <!-- ====== DESCENDING LIMB (thin) — Loop of Henle ====== -->
  <g filter="url(#shadow)">
    <!-- Outer wall -->
    <path d="M 290,195 Q 285,230 270,280 Q 255,350 240,420 Q 230,480 240,520 Q 250,545 270,550"
          stroke="url(#loopDescWallG)" stroke-width="10" fill="none" stroke-linecap="round"/>
    <!-- Lumen -->
    <path d="M 290,195 Q 285,230 270,280 Q 255,350 240,420 Q 230,480 240,520 Q 250,545 270,550"
          stroke="url(#loopDescLumenG)" stroke-width="4" fill="none" stroke-linecap="round"/>
    <!-- 3D highlight -->
    <path d="M 290,195 Q 285,230 270,280 Q 255,350 240,420 Q 230,480 240,520 Q 250,545 270,550"
          stroke="#e0ffe0" stroke-width="1.5" fill="none" stroke-linecap="round" opacity="0.35"/>
  </g>

  <!-- Thin descending label -->
  <text x="230" y="340" font-size="7.5" fill="#408840" transform="rotate(-80,230,340)" font-weight="bold">Thin descending limb</text>

  <!-- ====== HAIRPIN TURN ====== -->
  <g filter="url(#softShadow)">
    <path d="M 270,550 Q 290,560 310,550" stroke="#308030" stroke-width="10" fill="none" stroke-linecap="round"/>
    <path d="M 270,550 Q 290,560 310,550" stroke="#b8e8b8" stroke-width="4" fill="none" stroke-linecap="round"/>
  </g>

  <!-- ====== ASCENDING LIMB (thick) — Loop of Henle ====== -->
  <g filter="url(#shadow)">
    <!-- Outer wall (thicker for thick ascending) -->
    <path d="M 310,550 Q 320,480 330,420 Q 340,350 340,280 Q 340,230 335,200 Q 330,175 310,160"
          stroke="url(#loopAscWallG)" stroke-width="12" fill="none" stroke-linecap="round"/>
    <!-- Lumen -->
    <path d="M 310,550 Q 320,480 330,420 Q 340,350 340,280 Q 340,230 335,200 Q 330,175 310,160"
          stroke="url(#loopAscLumenG)" stroke-width="5" fill="none" stroke-linecap="round"/>
    <!-- 3D highlight -->
    <path d="M 310,550 Q 320,480 330,420 Q 340,350 340,280 Q 340,230 335,200 Q 330,175 310,160"
          stroke="#d0f8d0" stroke-width="1.8" fill="none" stroke-linecap="round" opacity="0.3"/>
  </g>

  <!-- Thick ascending label -->
  <text x="355" y="340" font-size="7.5" fill="#306830" transform="rotate(-85,355,340)" font-weight="bold">Thick ascending limb</text>

  <!-- ====== VASA RECTA (parallel to Loop of Henle) ====== -->
  <g opacity="0.55">
    <!-- Descending vasa recta (arterial - red) -->
    <path d="M 210,160 Q 205,250 200,350 Q 195,450 200,530" stroke="url(#vasaRectaDescG)" stroke-width="3.5" fill="none" stroke-linecap="round"/>
    <path d="M 210,160 Q 205,250 200,350 Q 195,450 200,530" stroke="#f8a0a0" stroke-width="1" fill="none" stroke-linecap="round" opacity="0.5"/>
    <!-- Ascending vasa recta (venous - blue) -->
    <path d="M 200,530 Q 215,535 218,530 Q 225,450 220,350 Q 215,250 215,160" stroke="url(#vasaRectaAscG)" stroke-width="3.5" fill="none" stroke-linecap="round"/>
    <path d="M 200,530 Q 215,535 218,530 Q 225,450 220,350 Q 215,250 215,160" stroke="#a0a0f8" stroke-width="1" fill="none" stroke-linecap="round" opacity="0.5"/>
    <!-- Connecting loops at bottom -->
    <path d="M 200,530 Q 209,540 218,530" stroke="#8040a0" stroke-width="2" fill="none"/>
    <!-- Small cross-connections -->
    <line x1="203" y1="300" x2="217" y2="300" stroke="#c080c0" stroke-width="0.8" opacity="0.5"/>
    <line x1="200" y1="380" x2="220" y2="380" stroke="#c080c0" stroke-width="0.8" opacity="0.5"/>
    <line x1="197" y1="460" x2="222" y2="460" stroke="#c080c0" stroke-width="0.8" opacity="0.5"/>
  </g>
  <!-- Vasa recta labels -->
  <text x="175" y="250" font-size="7" fill="#c04040" transform="rotate(-85,175,250)" opacity="0.7">Vasa recta (desc.)</text>
  <text x="230" y="250" font-size="7" fill="#4040c0" transform="rotate(-85,230,250)" opacity="0.7">Vasa recta (asc.)</text>
  <!-- Countercurrent arrows -->
  <g opacity="0.5">
    <line x1="198" y1="280" x2="198" y2="310" stroke="#c04040" stroke-width="1" marker-end="url(#arrowOrange)"/>
    <line x1="222" y1="310" x2="222" y2="280" stroke="#4040c0" stroke-width="1" marker-end="url(#arrowBlue)"/>
  </g>

  <!-- ====== DCT (Distal Convoluted Tubule) ====== -->
  <g filter="url(#shadow)">
    <path d="M 310,160 Q 280,145 250,155 Q 220,165 200,178 Q 175,192 165,205 Q 155,218 170,222 Q 200,225 230,218"
          stroke="url(#dctWallG)" stroke-width="12" fill="none" stroke-linecap="round" stroke-linejoin="round"/>
    <path d="M 310,160 Q 280,145 250,155 Q 220,165 200,178 Q 175,192 165,205 Q 155,218 170,222 Q 200,225 230,218"
          stroke="url(#dctLumenG)" stroke-width="5" fill="none" stroke-linecap="round" stroke-linejoin="round"/>
    <path d="M 310,160 Q 280,145 250,155 Q 220,165 200,178 Q 175,192 165,205 Q 155,218 170,222 Q 200,225 230,218"
          stroke="#e8d0f8" stroke-width="1.8" fill="none" stroke-linecap="round" stroke-linejoin="round" opacity="0.35"/>
  </g>
  <!-- DCT label -->
  <text x="195" y="198" font-size="9" font-weight="bold" fill="#704890">DCT</text>

  <!-- ====== COLLECTING DUCT ====== -->
  <g filter="url(#shadow)">
    <path d="M 230,218 Q 240,240 245,280 Q 250,340 255,400 Q 260,460 265,520 Q 268,560 270,580"
          stroke="url(#cdWallG)" stroke-width="14" fill="none" stroke-linecap="round"/>
    <path d="M 230,218 Q 240,240 245,280 Q 250,340 255,400 Q 260,460 265,520 Q 268,560 270,580"
          stroke="url(#cdLumenG)" stroke-width="6" fill="none" stroke-linecap="round"/>
    <path d="M 230,218 Q 240,240 245,280 Q 250,340 255,400 Q 260,460 265,520 Q 268,560 270,580"
          stroke="#d0e0f8" stroke-width="2" fill="none" stroke-linecap="round" opacity="0.35"/>
  </g>
  <!-- CD label -->
  <text x="268" y="440" font-size="9" font-weight="bold" fill="#285090" transform="rotate(-85,268,440)">Collecting Duct</text>

  <!-- ADH annotation on collecting duct -->
  <g>
    <rect x="280" y="470" width="68" height="30" rx="4" fill="#e0e8f8" stroke="#5080c0" stroke-width="0.8" opacity="0.85"/>
    <text x="285" y="482" font-size="7" font-weight="bold" fill="#285090">ADH acts here</text>
    <text x="285" y="492" font-size="6" fill="#4068a0">Aquaporin-2</text>
    <text x="285" y="500" font-size="6" fill="#4068a0">insertion</text>
    <line x1="280" y1="485" x2="262" y2="485" stroke="#5080c0" stroke-width="0.8" marker-end="url(#arrowBlue)"/>
  </g>

  <!-- Urine output arrow -->
  <path d="M 270,580 L 270,595" stroke="#285090" stroke-width="2" marker-end="url(#arrowBlue)"/>
  <text x="245" y="598" font-size="7.5" font-weight="bold" fill="#285090">Urine</text>

  <!-- ====== TRANSPORT ARROWS WITH MOLECULE ICONS ====== -->

  <!-- PCT Transport: Na+, Glucose, H2O reabsorption -->
  <g>
    <!-- Na+ reabsorption (orange dots) -->
    <line x1="370" y1="155" x2="395" y2="140" stroke="#e08020" stroke-width="1.2" marker-end="url(#arrowOrange)"/>
    <circle cx="380" cy="148" r="3" fill="#f0a030" stroke="#c08020" stroke-width="0.5"/>
    <text x="377" y="150" font-size="5" fill="#fff" font-weight="bold">Na</text>
    <circle cx="390" cy="142" r="3" fill="#f0a030" stroke="#c08020" stroke-width="0.5"/>
    <text x="387.5" y="144" font-size="5" fill="#fff" font-weight="bold">Na</text>
    <text x="397" y="138" font-size="7" fill="#e08020" font-weight="bold">Na&#x207A; (65%)</text>

    <!-- Glucose reabsorption (green hexagons) -->
    <line x1="380" y1="170" x2="410" y2="162" stroke="#30a040" stroke-width="1.2" marker-end="url(#arrowGreen)"/>
    <polygon points="388,167 391,164 395,164 398,167 395,170 391,170" fill="#60c060" stroke="#308030" stroke-width="0.5"/>
    <text x="389" y="169" font-size="4.5" fill="#fff" font-weight="bold">G</text>
    <text x="412" y="164" font-size="7" fill="#30a040" font-weight="bold">Glucose (100%)</text>

    <!-- H2O reabsorption (blue droplets) -->
    <line x1="350" y1="195" x2="380" y2="195" stroke="#2080d0" stroke-width="1.2" marker-end="url(#arrowBlue)"/>
    <path d="M365,192 Q367,188 369,192 Q369,195 367,196 Q365,195 365,192Z" fill="#40a0e0" stroke="#2070b0" stroke-width="0.3"/>
    <path d="M372,191 Q374,187 376,191 Q376,194 374,195 Q372,194 372,191Z" fill="#40a0e0" stroke="#2070b0" stroke-width="0.3"/>
    <text x="382" y="198" font-size="7" fill="#2080d0" font-weight="bold">H&#x2082;O (65%)</text>
  </g>

  <!-- Loop of Henle Transport -->
  <g>
    <!-- Descending limb: H2O out -->
    <line x1="250" y1="380" x2="225" y2="380" stroke="#2080d0" stroke-width="1" marker-end="url(#arrowBlue)"/>
    <path d="M240,377 Q242,373 244,377 Q244,380 242,381 Q240,380 240,377Z" fill="#40a0e0" stroke="#2070b0" stroke-width="0.3"/>
    <text x="177" y="378" font-size="6.5" fill="#2080d0">H&#x2082;O</text>
    <text x="165" y="387" font-size="5.5" fill="#2080d0" font-style="italic">(permeable)</text>

    <!-- Ascending thick limb: Na+ out, H2O impermeable -->
    <line x1="348" y1="340" x2="375" y2="340" stroke="#e08020" stroke-width="1" marker-end="url(#arrowOrange)"/>
    <circle cx="360" cy="337" r="2.5" fill="#f0a030" stroke="#c08020" stroke-width="0.4"/>
    <text x="357.5" y="339" font-size="4.5" fill="#fff" font-weight="bold">Na</text>
    <text x="378" y="338" font-size="6.5" fill="#e08020">Na&#x207A;/K&#x207A;/2Cl&#x207B;</text>
    <text x="378" y="347" font-size="5.5" fill="#e08020" font-style="italic">(NKCC2)</text>
    <!-- Impermeable to water symbol -->
    <text x="355" y="365" font-size="6" fill="#c04040">H&#x2082;O &#x2717;</text>
  </g>

  <!-- DCT Transport -->
  <g>
    <line x1="175" y1="212" x2="145" y2="212" stroke="#e08020" stroke-width="1" marker-end="url(#arrowOrange)"/>
    <circle cx="158" cy="209" r="2.5" fill="#f0a030" stroke="#c08020" stroke-width="0.4"/>
    <text x="155.5" y="211" font-size="4.5" fill="#fff" font-weight="bold">Na</text>
    <text x="100" y="212" font-size="6.5" fill="#e08020">Na&#x207A;/Cl&#x207B;</text>
    <text x="102" y="221" font-size="5.5" fill="#e08020" font-style="italic">(NCC)</text>
  </g>

  <!-- Collecting Duct Transport -->
  <g>
    <!-- H2O (ADH-dependent) -->
    <line x1="247" y1="500" x2="222" y2="500" stroke="#2080d0" stroke-width="1" marker-end="url(#arrowBlue)"/>
    <path d="M235,497 Q237,493 239,497 Q239,500 237,501 Q235,500 235,497Z" fill="#40a0e0" stroke="#2070b0" stroke-width="0.3"/>
    <text x="170" y="500" font-size="6.5" fill="#2080d0">H&#x2082;O (ADH)</text>
  </g>

  <!-- ====== SECTION INFO BOXES (RIGHT PANEL) ====== -->

  <!-- Title -->
  <text x="520" y="28" font-size="14" font-weight="bold" fill="#2c3e50" letter-spacing="0.5">Nephron Structure</text>
  <text x="520" y="42" font-size="9" fill="#5a6c7e" font-style="italic">Functional Unit of the Kidney</text>
  <line x1="520" y1="48" x2="725" y2="48" stroke="#3498db" stroke-width="1.5"/>

  <!-- Bowman's Capsule box -->
  <g filter="url(#boxShadow)">
    <rect x="520" y="55" width="205" height="58" rx="5" fill="#f0f7fc" stroke="#6090b0" stroke-width="1"/>
    <rect x="520" y="55" width="205" height="15" rx="5" fill="#6090b0"/>
    <rect x="520" y="65" width="205" height="5" fill="#6090b0"/>
    <text x="528" y="66" font-size="8" font-weight="bold" fill="#fff">Bowman's Capsule + Glomerulus</text>
    <text x="528" y="82" font-size="7" fill="#3a5a7a">Filtration barrier: endothelium +</text>
    <text x="528" y="91" font-size="7" fill="#3a5a7a">basement membrane + podocytes</text>
    <text x="528" y="100" font-size="7" fill="#3a5a7a">GFR ~125 mL/min (~180 L/day)</text>
    <text x="528" y="109" font-size="6.5" fill="#6090b0" font-style="italic">Net filtration pressure = P&#x47C; - P&#x42;S - &#x3C0;&#x47C;</text>
  </g>

  <!-- PCT box -->
  <g filter="url(#boxShadow)">
    <rect x="520" y="120" width="205" height="62" rx="5" fill="#fdf6ec" stroke="#b08020" stroke-width="1"/>
    <rect x="520" y="120" width="205" height="15" rx="5" fill="#c89830"/>
    <rect x="520" y="130" width="205" height="5" fill="#c89830"/>
    <text x="528" y="131" font-size="8" font-weight="bold" fill="#fff">Proximal Convoluted Tubule (PCT)</text>
    <text x="528" y="147" font-size="7" fill="#806020">Reabsorbs 65% Na&#x207A;, H&#x2082;O, HCO&#x2083;&#x207B;</text>
    <text x="528" y="156" font-size="7" fill="#806020">100% glucose &amp; amino acids (SGLT2)</text>
    <text x="528" y="165" font-size="7" fill="#806020">Secretes: H&#x207A;, organic acids, drugs</text>
    <text x="528" y="174" font-size="6.5" fill="#b08020" font-style="italic">Brush border = massive surface area</text>
  </g>

  <!-- Loop of Henle box -->
  <g filter="url(#boxShadow)">
    <rect x="520" y="190" width="205" height="70" rx="5" fill="#f0f8f0" stroke="#408840" stroke-width="1"/>
    <rect x="520" y="190" width="205" height="15" rx="5" fill="#508850"/>
    <rect x="520" y="200" width="205" height="5" fill="#508850"/>
    <text x="528" y="201" font-size="8" font-weight="bold" fill="#fff">Loop of Henle</text>
    <text x="528" y="218" font-size="7" fill="#306830" font-weight="bold">Thin descending:</text>
    <text x="615" y="218" font-size="7" fill="#306830">H&#x2082;O permeable, solute imperm.</text>
    <text x="528" y="228" font-size="7" fill="#306830" font-weight="bold">Thick ascending:</text>
    <text x="615" y="228" font-size="7" fill="#306830">Na&#x207A;/K&#x207A;/2Cl&#x207B; (NKCC2)</text>
    <text x="528" y="238" font-size="7" fill="#306830">Impermeable to H&#x2082;O (diluting segment)</text>
    <text x="528" y="248" font-size="7" fill="#306830">25% Na&#x207A; reabsorbed here</text>
    <text x="528" y="258" font-size="6.5" fill="#408840" font-style="italic">Countercurrent multiplier system</text>
  </g>

  <!-- DCT box -->
  <g filter="url(#boxShadow)">
    <rect x="520" y="268" width="205" height="58" rx="5" fill="#f5f0f8" stroke="#8060a0" stroke-width="1"/>
    <rect x="520" y="268" width="205" height="15" rx="5" fill="#8868a8"/>
    <rect x="520" y="278" width="205" height="5" fill="#8868a8"/>
    <text x="528" y="279" font-size="8" font-weight="bold" fill="#fff">Distal Convoluted Tubule (DCT)</text>
    <text x="528" y="296" font-size="7" fill="#604880">Na&#x207A;/Cl&#x207B; cotransporter (NCC)</text>
    <text x="528" y="305" font-size="7" fill="#604880">Site of thiazide diuretic action</text>
    <text x="528" y="314" font-size="7" fill="#604880">Ca&#xB2;&#x207A; reabsorption (PTH-regulated)</text>
    <text x="528" y="323" font-size="6.5" fill="#8060a0" font-style="italic">Macula densa: tubuloglomerular feedback</text>
  </g>

  <!-- Collecting Duct box -->
  <g filter="url(#boxShadow)">
    <rect x="520" y="334" width="205" height="70" rx="5" fill="#f0f4f8" stroke="#3868a0" stroke-width="1"/>
    <rect x="520" y="334" width="205" height="15" rx="5" fill="#4878a8"/>
    <rect x="520" y="344" width="205" height="5" fill="#4878a8"/>
    <text x="528" y="345" font-size="8" font-weight="bold" fill="#fff">Collecting Duct (CD)</text>
    <text x="528" y="362" font-size="7" fill="#2c4a6e" font-weight="bold">Principal cells:</text>
    <text x="598" y="362" font-size="7" fill="#2c4a6e">Na&#x207A; reabsorb, K&#x207A; secrete</text>
    <text x="528" y="372" font-size="7" fill="#2c4a6e" font-weight="bold">Intercalated cells:</text>
    <text x="615" y="372" font-size="7" fill="#2c4a6e">H&#x207A;/HCO&#x2083;&#x207B; balance</text>
    <text x="528" y="382" font-size="7" fill="#2c4a6e">ADH &#x2192; aquaporin-2 insertion &#x2192; H&#x2082;O reabsorb</text>
    <text x="528" y="392" font-size="7" fill="#2c4a6e">Aldosterone &#x2192; ENaC &#x2192; Na&#x207A; reabsorption</text>
    <text x="528" y="402" font-size="6.5" fill="#3868a0" font-style="italic">Final urine concentration determined here</text>
  </g>

  <!-- ====== KEY EXAM FACTS BOX ====== -->
  <g filter="url(#boxShadow)">
    <rect x="520" y="415" width="205" height="175" rx="6" fill="#fff8f0" stroke="#d35400" stroke-width="1.5"/>
    <rect x="520" y="415" width="205" height="18" rx="6" fill="#e67e22"/>
    <rect x="520" y="427" width="205" height="6" fill="#e67e22"/>
    <text x="530" y="429" font-size="9" font-weight="bold" fill="#fff">KEY EXAM FACTS</text>

    <text x="528" y="448" font-size="7" fill="#8b4513" font-weight="bold">Diuretic sites of action:</text>
    <text x="532" y="458" font-size="6.5" fill="#5a3510">Carbonic anhydrase inhib. &#x2192; PCT</text>
    <text x="532" y="467" font-size="6.5" fill="#5a3510">Loop diuretics (furosemide) &#x2192; TAL (NKCC2)</text>
    <text x="532" y="476" font-size="6.5" fill="#5a3510">Thiazides &#x2192; DCT (NCC)</text>
    <text x="532" y="485" font-size="6.5" fill="#5a3510">K&#x207A;-sparing (amiloride) &#x2192; CD (ENaC)</text>
    <text x="532" y="494" font-size="6.5" fill="#5a3510">Aldosterone antag. &#x2192; CD (MR receptor)</text>

    <line x1="528" y1="500" x2="718" y2="500" stroke="#e8c8a0" stroke-width="0.5"/>

    <text x="528" y="512" font-size="7" fill="#8b4513" font-weight="bold">Tubuloglomerular feedback (TGF):</text>
    <text x="532" y="522" font-size="6.5" fill="#5a3510">&#x2191; NaCl at macula densa &#x2192; &#x2193; GFR</text>
    <text x="532" y="531" font-size="6.5" fill="#5a3510">(afferent arteriole constriction)</text>

    <line x1="528" y1="537" x2="718" y2="537" stroke="#e8c8a0" stroke-width="0.5"/>

    <text x="528" y="549" font-size="7" fill="#8b4513" font-weight="bold">Countercurrent system:</text>
    <text x="532" y="559" font-size="6.5" fill="#5a3510">Multiplier = Loop of Henle</text>
    <text x="532" y="568" font-size="6.5" fill="#5a3510">Exchanger = Vasa recta</text>
    <text x="532" y="577" font-size="6.5" fill="#5a3510">Medullary gradient: 300&#x2192;1200 mOsm/kg</text>
    <text x="532" y="586" font-size="6.5" fill="#5a3510">ADH = max concentration ~1200 mOsm/kg</text>
  </g>

  <!-- ====== LEGEND ====== -->
  <g transform="translate(520,594)">
    <text x="0" y="0" font-size="6" fill="#666">
      <tspan fill="#d89820" font-weight="bold">&#x25A0;</tspan> PCT
      <tspan dx="5" fill="#408840" font-weight="bold">&#x25A0;</tspan> Loop
      <tspan dx="5" fill="#8060a0" font-weight="bold">&#x25A0;</tspan> DCT
      <tspan dx="5" fill="#3868a0" font-weight="bold">&#x25A0;</tspan> CD
      <tspan dx="8" fill="#40a0e0">&#x25CF;</tspan> H&#x2082;O
      <tspan dx="5" fill="#f0a030">&#x25CF;</tspan> Na&#x207A;
      <tspan dx="5" fill="#60c060">&#x2B22;</tspan> Glucose
    </text>
  </g>
</svg>